# Blender 5.0.0
# www.blender.org
mtllib Arcitc_T-arms.mtl
o sadasd
v 0.205795 1.631023 -0.042600
v 0.164626 1.614786 0.045928
v 0.231300 1.609329 -0.063418
v 0.176204 1.512133 0.099983
v 0.189066 1.454343 0.106431
v 0.218982 1.409073 -0.010608
v 0.220709 1.434698 -0.043211
v 0.256778 1.493172 -0.028161
v 0.256425 1.573630 -0.064011
v 0.264246 1.538393 -0.052449
v -0.253717 1.592750 -0.072428
v -0.220227 1.625341 -0.065731
v -0.186997 1.635973 -0.028632
v -0.194077 1.638380 -0.035445
v -0.167851 1.621513 0.029202
v -0.160866 1.616026 0.038474
v -0.154993 1.564945 0.096768
v -0.180233 1.501264 0.102345
v -0.176765 1.566753 0.084595
v -0.192260 1.442320 0.106097
v -0.235090 1.413261 0.023480
v -0.211929 1.415899 0.072837
v -0.251589 1.413708 -0.011685
v -0.184954 1.454770 0.623096
v -0.190527 1.451185 0.607479
v -0.186482 1.451266 0.615934
v -0.193214 1.459907 0.616139
v -0.198839 1.465206 0.596990
v -0.201651 1.474194 0.604630
v -0.211729 1.483147 0.580987
v -0.214416 1.494067 0.589953
v -0.221717 1.492354 0.565441
v -0.225685 1.501586 0.578144
v -0.181600 1.453135 0.603698
v -0.178731 1.450114 0.610295
v -0.188548 1.467485 0.592142
v -0.200062 1.487644 0.575585
v -0.209575 1.496836 0.560542
v -0.214831 1.499742 0.549507
v -0.231608 1.492036 0.554713
v -0.220472 1.504318 0.532304
v -0.237597 1.493914 0.537658
v -0.229514 1.500282 0.513117
v -0.245023 1.484500 0.514773
v -0.226662 1.487532 0.504323
v -0.231048 1.468019 0.493925
v -0.250967 1.462982 0.485525
v -0.267059 1.478127 0.516654
v -0.231625 1.490639 0.571694
v -0.282238 1.479331 0.547780
v -0.291987 1.467090 0.508174
v -0.262717 1.483771 0.543454
v -0.257012 1.483369 0.562308
v -0.248556 1.486164 0.577263
v -0.238965 1.476375 0.590541
v -0.224921 1.480063 0.587925
v -0.217449 1.489235 0.591266
v -0.250283 1.471077 0.590219
v -0.266657 1.477610 0.579892
v -0.273181 1.478439 0.565020
v -0.261331 1.469842 0.591419
v -0.263724 1.457348 0.598518
v -0.253326 1.459578 0.596659
v -0.243078 1.460944 0.596665
v -0.232296 1.466272 0.597232
v -0.220070 1.470170 0.594183
v -0.213500 1.482693 0.598675
v -0.206355 1.437472 0.613187
v -0.204040 1.464331 0.609763
v -0.198043 1.444066 0.615859
v -0.213338 1.455357 0.605007
v -0.223852 1.451903 0.604028
v -0.234561 1.448687 0.600810
v -0.246993 1.451941 0.601357
v -0.252003 1.450532 0.602052
v -0.257060 1.451554 0.604349
v -0.265196 1.459674 0.604922
v -0.272945 1.467089 0.593483
v -0.274838 1.471413 0.598293
v -0.283253 1.474255 0.583655
v -0.228469 1.438378 0.609548
v -0.218817 1.444989 0.617262
v -0.236525 1.440598 0.605738
v -0.275250 1.477971 0.601762
v -0.270173 1.471908 0.605776
v -0.261745 1.461998 0.609953
v -0.255647 1.456765 0.611483
v -0.250035 1.459149 0.612065
v -0.246445 1.463028 0.610677
v -0.262475 1.477562 0.607465
v -0.253425 1.464714 0.612424
v -0.268783 1.484949 0.602442
v -0.284420 1.486015 0.591197
v -0.278068 1.493384 0.590933
v -0.292529 1.488832 0.579992
v -0.283882 1.498400 0.581022
v -0.304730 1.492130 0.561308
v -0.295989 1.507477 0.558520
v -0.317632 1.495234 0.535706
v -0.310284 1.514223 0.535557
v -0.281596 1.522763 0.553533
v -0.297359 1.526692 0.530473
v -0.266336 1.533801 0.543629
v -0.248136 1.521650 0.571211
v -0.230658 1.525027 0.563553
v -0.208794 1.517928 0.568810
v -0.216209 1.524382 0.557836
v -0.248196 1.537664 0.534109
v -0.277331 1.535224 0.520004
v -0.326239 1.528946 0.494816
v -0.339526 1.500001 0.501039
v -0.315738 1.481243 0.530424
v -0.303414 1.480548 0.554627
v -0.291072 1.477993 0.571972
v -0.231966 1.536152 0.527021
v -0.256214 1.536542 0.507234
v -0.233499 1.519359 0.507210
v -0.229471 1.507432 0.516301
v -0.245765 1.527948 0.488456
v -0.227921 1.508421 0.493675
v -0.238313 1.518924 0.473865
v -0.267628 1.536259 0.458546
v -0.305399 1.540010 0.482972
v -0.372122 1.529813 0.433340
v -0.377937 1.494222 0.432324
v -0.336125 1.555440 0.417467
v -0.305746 1.547934 0.396045
v -0.292473 1.521422 0.384317
v -0.204713 1.490243 0.494507
v -0.218492 1.501772 0.485252
v -0.242630 1.513068 0.460404
v -0.260180 1.512725 0.449948
v -0.259564 1.498321 0.448540
v -0.292314 1.505226 0.383457
v -0.297239 1.490626 0.382293
v -0.258121 1.485635 0.447821
v -0.250690 1.484482 0.454223
v -0.243602 1.501550 0.454085
v -0.227190 1.469633 0.471666
v -0.217535 1.484916 0.468295
v -0.217191 1.467608 0.476851
v -0.209702 1.479646 0.475194
v -0.206165 1.463843 0.485786
v -0.199705 1.474705 0.485004
v -0.215465 1.495233 0.474828
v -0.207590 1.489890 0.481081
v -0.199621 1.483921 0.489508
v -0.191282 1.478366 0.497156
v -0.191608 1.470012 0.492472
v -0.185370 1.465030 0.503243
v -0.181190 1.445482 0.526157
v -0.182603 1.448391 0.515560
v -0.176066 1.445259 0.521322
v -0.190917 1.447016 0.521339
v -0.189636 1.454985 0.502063
v -0.201894 1.451494 0.513075
v -0.197128 1.459940 0.493170
v -0.206935 1.458825 0.502200
v -0.215715 1.461228 0.493499
v -0.227060 1.461890 0.485685
v -0.175818 1.458925 0.514235
v -0.169432 1.453707 0.521308
v -0.175007 1.465456 0.517206
v -0.168821 1.460406 0.524047
v -0.177134 1.468957 0.521199
v -0.184733 1.467605 0.529559
v -0.194352 1.475509 0.519777
v -0.199712 1.470429 0.521745
v -0.206745 1.476210 0.512426
v -0.210049 1.465350 0.508915
v -0.216858 1.468488 0.500606
v -0.214062 1.479676 0.506665
v -0.175408 1.460410 0.531078
v -0.189010 1.458285 0.529221
v -0.178568 1.453601 0.529872
v -0.202783 1.460772 0.518021
v -0.212275 1.488185 0.502837
v -0.194695 1.481534 0.502848
v -0.184325 1.472704 0.507470
v -0.187342 1.476679 0.512532
v -0.202216 1.480427 0.511037
v -0.174982 1.456176 0.619206
v -0.226835 1.446127 0.618998
v -0.237051 1.445383 0.613953
v 0.198484 1.508282 0.112402
v 0.232359 1.571070 0.155136
v 0.206092 1.575133 0.115601
v 0.228206 1.617231 0.084799
v 0.261414 1.612275 0.129949
v 0.290300 1.606497 0.092861
v 0.326379 1.597355 0.139977
v 0.358311 1.573002 0.113652
v 0.398856 1.563441 0.171376
v 0.235358 1.458938 0.083512
v 0.211891 1.486364 0.102950
v 0.409319 1.531475 0.170914
v 0.435465 1.537241 0.222957
v 0.367064 1.543221 0.095696
v 0.324488 1.587093 0.079803
v 0.263712 1.608237 0.041830
v 0.243546 1.611851 -0.020587
v 0.262203 1.587900 -0.022778
v 0.288726 1.551737 -0.029315
v 0.284801 1.495007 0.009956
v 0.243121 1.442243 -0.016461
v 0.278140 1.464398 0.042030
v 0.364603 1.496028 0.111553
v 0.335859 1.461877 0.134923
v 0.320672 1.499733 0.055464
v 0.329945 1.549715 0.052594
v 0.309867 1.558934 0.019787
v 0.245124 1.454657 0.053179
v 0.281028 1.471449 0.174113
v 0.389907 1.476098 0.200485
v 0.333237 1.474064 0.244237
v 0.412378 1.471426 0.259382
v 0.372867 1.465491 0.289214
v 0.435011 1.490139 0.331488
v 0.395333 1.456232 0.323149
v 0.378418 1.456238 0.350762
v 0.424011 1.480432 0.234123
v 0.413392 1.499421 0.177809
v 0.439220 1.500462 0.217045
v 0.444645 1.491792 0.278619
v 0.440188 1.530064 0.213178
v 0.303129 1.533498 0.546364
v 0.322074 1.490708 0.508675
v 0.324709 1.540572 0.515963
v 0.291695 1.486167 0.547123
v 0.271208 1.464470 0.492196
v 0.291416 1.462795 0.460709
v 0.335509 1.493033 0.489395
v 0.332953 1.459321 0.409391
v 0.373061 1.493033 0.431529
v 0.408266 1.495876 0.361326
v 0.447268 1.538995 0.324396
v 0.456536 1.508078 0.259710
v 0.454269 1.535798 0.261260
v 0.247527 1.466031 0.517897
v 0.417825 1.541338 0.360656
v 0.393976 1.572672 0.352746
v 0.319934 1.577486 0.382853
v 0.301820 1.574308 0.366342
v 0.279943 1.570105 0.404231
v 0.273666 1.575267 0.410050
v 0.328480 1.580609 0.384889
v 0.355376 1.582942 0.403113
v 0.378745 1.544224 0.433850
v 0.341641 1.540952 0.488323
v 0.291939 1.585242 0.500774
v 0.317440 1.580069 0.469831
v 0.266499 1.545462 0.350251
v 0.262499 1.509902 0.351226
v 0.230762 1.510732 0.406021
v 0.232212 1.544516 0.403045
v 0.244970 1.559104 0.418257
v 0.249232 1.568555 0.418653
v 0.262688 1.574982 0.427386
v 0.296515 1.582071 0.451352
v 0.310342 1.577508 0.458537
v 0.274891 1.577589 0.481961
v 0.275406 1.587310 0.524207
v 0.200708 1.546037 0.442238
v 0.202924 1.542145 0.440802
v 0.222364 1.587375 0.486348
v 0.259915 1.584756 0.472864
v 0.240565 1.578881 0.459803
v 0.185738 1.545638 0.464065
v 0.183818 1.514201 0.463237
v 0.202336 1.513782 0.437116
v 0.212484 1.478669 0.446477
v 0.239383 1.476400 0.415639
v 0.228054 1.456765 0.462087
v 0.250455 1.455738 0.433569
v 0.207833 1.461022 0.494335
v 0.192304 1.478234 0.478626
v 0.249987 1.503518 0.196393
v 0.304644 1.507537 0.264562
v 0.336731 1.495504 0.293519
v 0.357050 1.466209 0.302749
v 0.337584 1.455085 0.326775
v 0.288728 1.449981 0.382680
v 0.270731 1.468500 0.367686
v 0.301689 1.541813 0.259762
v 0.320159 1.478769 0.312434
v 0.357890 1.559448 0.267850
v 0.407328 1.579525 0.268729
v 0.393172 1.584771 0.238677
v 0.361692 1.581820 0.259499
v 0.332672 1.598748 0.228294
v 0.339967 1.566132 0.274100
v 0.313311 1.581954 0.249558
v 0.339192 1.528994 0.284439
v 0.341513 1.488676 0.288524
v 0.312054 1.516464 0.294889
v 0.317126 1.542687 0.291471
v 0.355745 1.570179 0.306419
v 0.339460 1.529329 0.273448
v 0.332853 1.570620 0.340716
v 0.403293 1.574815 0.333170
v 0.440253 1.567988 0.289807
v 0.420680 1.565678 0.222162
v 0.366988 1.589860 0.196890
v 0.290769 1.604480 0.171152
v 0.259473 1.586645 0.191565
v 0.247500 1.546511 0.201669
v -0.221315 1.512518 0.530936
v -0.211684 1.513494 0.552813
v -0.204153 1.508556 0.563933
v -0.193947 1.497572 0.580291
v -0.182632 1.475853 0.597501
v -0.176232 1.461449 0.609358
v -0.322458 1.474311 0.395484
v -0.291698 1.448030 0.468233
v -0.254498 1.466755 0.448952
v -0.240330 1.488547 0.438791
v -0.239891 1.515462 0.442044
v -0.259544 1.549036 0.460243
v -0.307088 1.551276 0.488142
v -0.341752 1.522762 0.506965
v -0.254472 1.471500 0.465871
v -0.238583 1.463264 0.480196
v -0.288462 1.476805 0.456997
v -0.261799 1.486710 0.601163
v -0.255618 1.478203 0.605213
v -0.234876 1.465090 0.617976
v -0.224750 1.465209 0.617054
v -0.207316 1.450114 0.626398
v -0.214268 1.467943 0.621403
v -0.198756 1.450112 0.623535
v -0.204475 1.467882 0.617228
v -0.226282 1.489513 0.606932
v -0.216683 1.490665 0.603767
v -0.232005 1.498670 0.599820
v -0.221864 1.498241 0.597609
v -0.244665 1.512142 0.581698
v -0.236447 1.514329 0.577812
v -0.246079 1.483566 0.608277
v -0.264351 1.515278 0.578360
v -0.256326 1.508516 0.585260
v -0.208220 1.444139 0.622225
v -0.275357 1.507962 0.581414
v -0.273572 1.497046 0.589386
v -0.252606 1.492038 0.602054
v -0.235890 1.483844 0.605904
v -0.241874 1.493618 0.600112
v -0.265659 1.503120 0.587938
v -0.223207 1.517013 0.574382
v -0.210208 1.505062 0.591288
v -0.207475 1.498465 0.594334
v -0.196345 1.483332 0.608083
v -0.193854 1.478210 0.611471
v -0.187331 1.463473 0.620674
v -0.176861 1.464713 0.616769
v -0.182869 1.479113 0.606934
v -0.185282 1.484101 0.603918
v -0.194821 1.500301 0.589234
v -0.198898 1.506860 0.585437
v -0.360117 1.473437 0.421083
v -0.274287 1.469638 0.487111
v -0.315732 1.475423 0.486393
v -0.339377 1.471652 0.497915
v -0.330650 1.446539 0.489912
v -0.249028 1.459654 0.443922
v -0.291344 1.437836 0.465610
v -0.316541 1.441641 0.427450
v -0.332456 1.444608 0.402337
v -0.271687 1.467597 0.400838
v -0.230979 1.486632 0.434738
v -0.408184 1.447942 0.289242
v -0.315762 1.466103 0.329700
v -0.360960 1.443021 0.355119
v -0.288127 1.470337 0.377482
v -0.254327 1.492725 0.396594
v -0.230673 1.519262 0.438029
v -0.255882 1.526513 0.401948
v -0.272465 1.498511 0.373092
v -0.294211 1.560707 0.408379
v -0.278152 1.550323 0.403021
v -0.273755 1.528463 0.380660
v -0.302312 1.500484 0.322143
v -0.365923 1.470882 0.271451
v -0.427380 1.449326 0.252916
v -0.396138 1.469299 0.245902
v -0.425339 1.445791 0.231185
v -0.390660 1.479914 0.249340
v -0.390019 1.453426 0.195533
v -0.363869 1.484167 0.224992
v -0.324745 1.448751 0.123766
v -0.289227 1.472643 0.167336
v -0.269935 1.440939 0.061942
v -0.237949 1.468737 0.099258
v -0.310975 1.534979 0.321831
v -0.332368 1.561144 0.332660
v -0.379590 1.570636 0.354935
v -0.386593 1.562454 0.376343
v -0.443527 1.537597 0.359178
v -0.486328 1.540118 0.295661
v -0.485194 1.502697 0.308708
v -0.432529 1.539153 0.376839
v -0.348236 1.565303 0.416629
v -0.331577 1.563404 0.447998
v -0.289869 1.522365 0.181425
v -0.262238 1.512147 0.160641
v -0.262801 1.547222 0.152170
v -0.353141 1.525229 0.229844
v -0.387462 1.518652 0.251371
v -0.382553 1.515753 0.242554
v -0.352131 1.506796 0.264541
v -0.357933 1.549124 0.265550
v -0.371088 1.570144 0.272263
v -0.420230 1.575008 0.289725
v -0.349944 1.557608 0.224617
v -0.392972 1.555435 0.243556
v -0.390930 1.559410 0.247763
v -0.398366 1.577445 0.238938
v -0.406727 1.573036 0.242080
v -0.452613 1.578644 0.239298
v -0.429070 1.460350 0.160139
v -0.373960 1.462193 0.081612
v -0.440014 1.478324 0.142908
v -0.393608 1.506436 0.063790
v -0.445827 1.507619 0.131682
v -0.474680 1.504970 0.175154
v -0.475700 1.540791 0.171956
v -0.510051 1.500908 0.226298
v -0.505638 1.527539 0.212476
v -0.503067 1.497078 0.275608
v -0.502928 1.546257 0.254913
v -0.470302 1.473450 0.188298
v -0.499294 1.474848 0.227280
v -0.487488 1.462118 0.262895
v -0.466741 1.458140 0.208399
v -0.462383 1.467836 0.293379
v -0.434488 1.487514 0.388192
v -0.394101 1.532968 0.443464
v -0.378545 1.533479 0.469564
v -0.310042 1.562613 0.489468
v -0.253951 1.557251 0.456734
v -0.412383 1.447594 0.378090
v -0.396171 1.475726 0.439433
v -0.375617 1.471214 0.469104
v -0.354565 1.528086 0.512730
v -0.380012 1.447903 0.427592
v -0.362632 1.443511 0.457402
v -0.333081 1.438251 0.488580
v -0.353290 1.467618 0.503301
v 0.147257 1.459521 0.574637
v 0.160348 1.463871 0.563190
v 0.152992 1.471772 0.563021
v 0.158379 1.476494 0.552140
v 0.166408 1.467774 0.552957
v 0.166292 1.485104 0.538888
v 0.174411 1.475015 0.537477
v 0.139502 1.465447 0.571472
v 0.133896 1.455864 0.575689
v 0.139747 1.451222 0.577113
v 0.146396 1.472917 0.559334
v 0.152793 1.477493 0.549305
v 0.161770 1.490040 0.532148
v 0.174688 1.496408 0.533627
v 0.188381 1.478652 0.531327
v 0.165081 1.501691 0.528935
v 0.153594 1.481067 0.530268
v 0.146906 1.472259 0.541381
v 0.140790 1.468287 0.552254
v 0.133470 1.460323 0.563297
v 0.129123 1.450523 0.569247
v 0.133658 1.455112 0.560944
v 0.137572 1.449050 0.560652
v 0.145347 1.454588 0.548073
v 0.153527 1.447769 0.550732
v 0.159600 1.452158 0.540553
v 0.167402 1.458689 0.549236
v 0.175658 1.461605 0.540185
v 0.167252 1.456880 0.532151
v 0.188672 1.468984 0.526052
v 0.178870 1.466300 0.515812
v 0.196931 1.472208 0.518864
v 0.132890 1.444313 0.569235
v 0.147810 1.443805 0.565790
v 0.164195 1.454104 0.562124
v 0.142337 1.440279 0.572373
v 0.154904 1.448345 0.571577
v 0.146060 1.444397 0.576714
v 0.187812 1.470649 0.510146
v 0.201717 1.478500 0.501223
v 0.171477 1.473388 0.507884
v 0.188303 1.489424 0.494719
v 0.164294 1.483242 0.510056
v 0.158462 1.477458 0.517942
v 0.152458 1.471859 0.528078
v 0.146075 1.466171 0.537341
v 0.140548 1.461921 0.549099
v 0.150585 1.457798 0.536157
v 0.162624 1.493569 0.517207
v 0.210796 1.485028 0.488251
v 0.204339 1.495256 0.482639
v 0.207288 1.479309 0.523781
v 0.208633 1.473428 0.516873
v 0.238288 1.489900 0.506314
v 0.249179 1.497832 0.437543
v 0.252398 1.504694 0.430135
v 0.201049 1.509091 0.479968
v 0.181639 1.500687 0.496228
v 0.173190 1.508223 0.506523
v 0.271720 1.498645 0.453415
v 0.173785 1.524002 0.516549
v 0.163370 1.517858 0.537280
v 0.196571 1.534824 0.478965
v 0.215100 1.558274 0.493665
v 0.178453 1.546651 0.524050
v 0.151858 1.537857 0.549294
v 0.155271 1.523820 0.548882
v 0.165144 1.513769 0.543707
v 0.168661 1.506781 0.543460
v 0.133879 1.531235 0.588565
v 0.142745 1.527834 0.568865
v 0.134394 1.519745 0.587636
v 0.141472 1.540577 0.569358
v 0.164632 1.548756 0.555123
v 0.153231 1.549496 0.574264
v 0.148156 1.543258 0.587391
v 0.136897 1.528914 0.614222
v 0.126956 1.523367 0.608239
v 0.127202 1.511715 0.607032
v 0.125422 1.517425 0.614272
v 0.121262 1.504804 0.634082
v 0.123339 1.494602 0.631283
v 0.120691 1.500634 0.638782
v 0.119719 1.489412 0.653388
v 0.121696 1.483894 0.647766
v 0.121193 1.482346 0.658888
v 0.217754 1.565778 0.550168
v 0.247456 1.567657 0.515323
v 0.195871 1.559327 0.536160
v 0.180961 1.556888 0.565216
v 0.169062 1.557099 0.582455
v 0.160580 1.548101 0.591448
v 0.154301 1.528422 0.603211
v 0.145445 1.521230 0.617098
v 0.136702 1.523281 0.619561
v 0.130823 1.510514 0.638119
v 0.130178 1.506328 0.643215
v 0.216670 1.556808 0.584996
v 0.233694 1.562951 0.559456
v 0.198229 1.561348 0.574749
v 0.186863 1.558078 0.591771
v 0.178705 1.552546 0.603475
v 0.168227 1.551278 0.595791
v 0.157708 1.536243 0.624319
v 0.149158 1.530619 0.622535
v 0.155250 1.528553 0.634420
v 0.146681 1.524152 0.631149
v 0.151137 1.510313 0.656085
v 0.143059 1.504477 0.652340
v 0.151517 1.494177 0.667513
v 0.144309 1.489386 0.664949
v 0.155475 1.488205 0.665897
v 0.168598 1.536551 0.626399
v 0.147409 1.481437 0.660133
v 0.158018 1.478763 0.660067
v 0.165406 1.491923 0.660876
v 0.162354 1.511225 0.652986
v 0.166373 1.527784 0.635514
v 0.175234 1.532899 0.637714
v 0.178555 1.540683 0.628687
v 0.186493 1.531656 0.636807
v 0.189142 1.540058 0.629782
v 0.195924 1.542147 0.631562
v 0.171835 1.497027 0.661973
v 0.171324 1.515947 0.653784
v 0.183708 1.516888 0.647690
v 0.182099 1.499228 0.657481
v 0.190292 1.504765 0.643242
v 0.188552 1.552381 0.609026
v 0.197275 1.549817 0.614857
v 0.202574 1.549317 0.617627
v 0.204722 1.539016 0.633504
v 0.211282 1.546135 0.620592
v 0.206656 1.554214 0.606281
v 0.219164 1.548236 0.609073
v 0.231706 1.549996 0.590407
v 0.248137 1.550556 0.566693
v 0.197040 1.559407 0.600320
v 0.243804 1.519186 0.426170
v 0.244607 1.542091 0.423698
v 0.245882 1.558721 0.431165
v 0.291795 1.566691 0.465127
v 0.305102 1.543901 0.477810
v 0.270381 1.551746 0.531885
v 0.253095 1.536326 0.567105
v 0.236405 1.537538 0.588609
v 0.223642 1.535872 0.605756
v 0.216325 1.533301 0.618063
v 0.207630 1.532218 0.632773
v 0.203483 1.515711 0.638405
v 0.208500 1.526150 0.629972
v 0.298816 1.519774 0.470926
v 0.180597 1.496355 0.644090
v 0.184929 1.492222 0.651688
v 0.178027 1.488105 0.656134
v 0.193543 1.512294 0.635945
v 0.197285 1.522555 0.627137
v 0.200671 1.527406 0.613477
v 0.208546 1.525902 0.599329
v 0.219040 1.524767 0.582940
v 0.239183 1.505412 0.550797
v 0.264578 1.517255 0.529685
v 0.223759 1.487975 0.537044
v 0.187070 1.518251 0.625669
v 0.183796 1.508867 0.635537
v 0.190720 1.505646 0.544265
v 0.212801 1.510819 0.548193
v 0.202286 1.522735 0.570918
v 0.190504 1.520906 0.593906
v 0.181329 1.525532 0.607992
v 0.174683 1.517710 0.624079
v 0.171837 1.508674 0.634157
v 0.169158 1.495353 0.645961
v 0.176504 1.517969 0.561972
v 0.167315 1.515131 0.585066
v 0.165196 1.519796 0.601317
v 0.160992 1.513619 0.620405
v 0.159757 1.505417 0.629984
v 0.158151 1.493870 0.645667
v 0.145337 1.498789 0.646774
v 0.147954 1.514396 0.629479
v 0.149958 1.519030 0.620108
v 0.156611 1.514667 0.594977
v 0.157702 1.517127 0.553255
v 0.149922 1.512262 0.577502
v 0.144659 1.511297 0.588870
v 0.137553 1.504609 0.606364
v 0.149006 1.507928 0.612948
v 0.132969 1.488474 0.629423
v 0.142357 1.492825 0.634670
v 0.130860 1.477464 0.645612
v 0.139060 1.481116 0.649760
v 0.128491 1.475947 0.652889
v 0.134053 1.482279 0.657598
v 0.136461 1.492494 0.654457
v 0.130085 1.486951 0.662921
v 0.139922 1.504130 0.638320
v 0.195253 1.506066 0.644369
v 0.202812 1.520483 0.643441
v 0.198990 1.509948 0.646059
v 0.194420 1.516074 0.650710
v 0.197953 1.522594 0.647256
v 0.202052 1.533114 0.639561
v 0.192540 1.534946 0.639066
v 0.188979 1.521986 0.648600
v 0.188311 1.515750 0.650404
v 0.244360 1.472725 0.516001
v 0.283942 1.488437 0.541917
v 0.293919 1.527892 0.543148
v 0.269557 1.577972 0.522833
v 0.222887 1.578737 0.489970
v 0.191874 1.539892 0.468980
v 0.189819 1.514338 0.467289
v 0.195129 1.483606 0.483314
v 0.207904 1.471486 0.493582
v 0.128986 1.494381 0.657367
v -0.283800 1.597695 0.011069
v -0.231471 1.617380 -0.015539
v -0.269545 1.593762 -0.032469
v -0.259840 1.610274 0.042789
v -0.227234 1.604487 0.064574
v -0.223956 1.545995 0.116548
v -0.222783 1.497728 0.118421
v -0.276345 1.592362 0.132427
v -0.296186 1.600288 0.088543
v -0.326542 1.592100 0.066424
v -0.311776 1.563752 -0.000098
v -0.293598 1.559028 -0.029133
v -0.304345 1.533367 -0.020970
v -0.306806 1.503451 -0.013351
v -0.363092 1.587215 0.096088
v -0.321305 1.465030 0.025646
v -0.337459 1.504066 0.023873
v -0.299542 1.466784 -0.003106
v -0.300367 1.449456 0.039683
v -0.346319 1.565139 0.036550
v -0.383570 1.556345 0.071348
v -0.441537 1.542904 0.135510
v -0.476871 1.550840 0.179906
v -0.449684 1.575571 0.194333
v -0.429128 1.583972 0.210694
v -0.360276 1.584221 0.210224
v -0.295037 1.563107 0.187392
v -0.415311 1.578971 0.152617
v -0.394332 1.588414 0.175256
v -0.311220 1.592754 0.162111
v -0.344221 1.592236 0.129243
v 0.157080 1.462727 0.527389
v 0.165548 1.467904 0.516340
vn 0.2443 0.9694 0.0236
vn -0.3098 0.8997 -0.3076
vn 0.1475 0.8787 -0.4539
vn 0.3526 0.8999 0.2565
vn -0.2834 0.7429 0.6064
vn -0.4242 0.5037 0.7526
vn -0.0752 0.5567 0.8273
vn 0.2714 0.1076 0.9564
vn -0.4326 -0.4343 0.7901
vn -0.5594 -0.8184 -0.1319
vn -0.1120 -0.9699 0.2161
vn -0.8356 -0.2646 0.4814
vn -0.6437 -0.6847 -0.3418
vn -0.8367 -0.1075 0.5369
vn -0.5524 -0.7977 -0.2419
vn -0.7884 -0.1383 0.5995
vn -0.0594 -0.9980 -0.0192
vn 0.3871 -0.1914 0.9020
vn 0.4566 -0.6581 -0.5987
vn 0.5956 -0.7832 -0.1786
vn 0.3381 -0.4745 -0.8127
vn 0.4062 -0.5255 -0.7476
vn 0.5411 -0.5900 -0.5993
vn 0.7103 -0.5687 -0.4148
vn 0.2910 -0.9402 -0.1773
vn 0.7944 -0.4746 -0.3790
vn 0.4596 -0.8862 -0.0589
vn 0.9720 -0.2265 0.0627
vn 0.4081 -0.7808 0.4730
vn 0.3765 -0.0632 0.9243
vn -0.1057 -0.6631 0.7410
vn -0.0829 -0.9790 0.1861
vn 0.2172 -0.9391 0.2664
vn 0.3735 -0.8949 -0.2442
vn 0.1258 -0.9902 0.0613
vn -0.0505 -0.9950 0.0864
vn 0.2980 -0.9542 0.0261
vn 0.3155 -0.9424 -0.1112
vn 0.2695 -0.8800 -0.3912
vn 0.1534 -0.6233 -0.7668
vn 0.4052 -0.4813 -0.7773
vn 0.8855 0.1877 -0.4250
vn 0.1354 -0.5981 -0.7899
vn 0.1786 -0.8861 -0.4277
vn 0.1382 -0.9798 -0.1448
vn -0.0031 -0.6327 -0.7744
vn -0.3846 -0.7320 -0.5624
vn 0.0032 -0.4967 -0.8679
vn 0.1033 -0.4106 -0.9059
vn 0.1082 -0.4134 -0.9041
vn 0.4080 -0.3733 -0.8332
vn 0.8975 0.1923 -0.3969
vn 0.1943 -0.8495 -0.4905
vn 0.7851 0.0402 -0.6181
vn 0.9455 -0.3241 0.0304
vn 0.4805 -0.2742 -0.8331
vn 0.2043 -0.5282 -0.8242
vn 0.1378 -0.4036 -0.9045
vn -0.3542 -0.8085 -0.4700
vn 0.2108 -0.9773 0.0209
vn -0.4870 -0.8102 0.3263
vn -0.7436 -0.5566 0.3705
vn -0.4605 -0.8287 -0.3180
vn -0.8067 -0.4396 0.3950
vn -0.5743 -0.8109 0.1125
vn 0.1755 -0.9784 -0.1093
vn -0.1478 -0.6325 0.7604
vn -0.3961 -0.8557 -0.3329
vn -0.6927 -0.0060 0.7212
vn -0.5951 -0.0861 0.7990
vn -0.4611 -0.2594 0.8486
vn -0.1238 -0.5941 0.7948
vn 0.2190 -0.3163 0.9230
vn -0.0665 -0.1052 0.9922
vn -0.0448 0.4198 0.9065
vn -0.0566 0.1513 0.9869
vn -0.3072 0.5161 0.7996
vn -0.7652 0.0460 0.6421
vn -0.4148 0.6157 0.6700
vn -0.8046 0.0622 0.5906
vn -0.5885 0.5416 0.6003
vn -0.8489 0.1030 0.5185
vn -0.6262 0.5798 0.5213
vn -0.8487 0.1164 0.5159
vn -0.6619 0.5424 0.5175
vn -0.3953 0.7807 0.4840
vn -0.3938 0.8445 0.3628
vn -0.1771 0.9217 0.3451
vn -0.0283 0.8226 0.5679
vn 0.1005 0.8965 0.4314
vn 0.5732 0.8033 0.1619
vn 0.5787 0.8151 0.0258
vn 0.0377 0.9847 0.1702
vn -0.1769 0.9690 0.1725
vn -0.5030 0.7622 0.4075
vn -0.8664 -0.0725 0.4940
vn -0.7258 -0.6171 0.3040
vn -0.5454 -0.7698 0.3316
vn -0.5036 -0.8422 0.1926
vn 0.7067 0.6413 -0.2987
vn 0.2550 0.9606 -0.1102
vn 0.8433 0.5073 -0.1776
vn 0.9045 0.1527 -0.3983
vn 0.5889 0.8001 -0.1144
vn 0.7466 0.5946 0.2986
vn 0.6897 0.6903 -0.2188
vn 0.5478 0.7786 -0.3062
vn -0.0733 0.9796 0.1873
vn -0.0646 0.9465 0.3163
vn -0.4345 -0.7309 0.5263
vn 0.6142 -0.7886 -0.0301
vn 0.6148 -0.1113 0.7808
vn 0.6401 -0.2374 0.7307
vn 0.6274 0.7737 0.0876
vn 0.6734 0.7195 -0.1699
vn 0.6036 0.4991 -0.6217
vn 0.6364 0.3022 -0.7097
vn 0.7338 0.0095 -0.6793
vn 0.5543 -0.1471 0.8192
vn 0.1969 0.8454 0.4965
vn 0.5877 -0.6307 -0.5068
vn 0.3478 -0.4739 -0.8090
vn 0.4364 0.0206 -0.8995
vn 0.2233 -0.6441 -0.7316
vn 0.5448 -0.0411 -0.8376
vn 0.2752 -0.7063 -0.6522
vn 0.6468 -0.0821 -0.7582
vn 0.2559 -0.7477 -0.6128
vn 0.6782 -0.0528 -0.7330
vn 0.6985 0.4751 -0.5351
vn 0.7540 0.4956 -0.4311
vn 0.7589 0.4730 -0.4477
vn 0.7989 0.5124 -0.3150
vn 0.7556 -0.0324 -0.6542
vn 0.8116 -0.0719 -0.5798
vn 0.1278 -0.8740 0.4689
vn 0.2798 -0.7727 -0.5698
vn 0.4756 -0.7890 -0.3888
vn -0.3651 -0.8837 0.2929
vn 0.3645 -0.7183 -0.5926
vn -0.5891 -0.8038 0.0834
vn 0.1996 -0.7248 -0.6594
vn -0.5306 -0.8475 -0.0143
vn -0.3215 -0.9434 0.0819
vn -0.0594 -0.9976 0.0360
vn 0.6910 -0.1232 -0.7123
vn 0.9266 -0.3527 0.1301
vn 0.7920 0.4513 -0.4111
vn 0.8379 0.4936 0.2332
vn 0.5474 0.8091 0.2139
vn 0.0843 0.5988 0.7964
vn -0.0417 0.8072 0.5888
vn -0.5865 0.2423 0.7729
vn -0.5946 0.3092 0.7422
vn -0.7863 -0.3168 0.5304
vn -0.5812 -0.4615 0.6703
vn -0.3777 0.0895 0.9216
vn 0.3839 -0.0199 0.9231
vn -0.4370 -0.1990 0.8772
vn 0.0850 -0.4084 0.9089
vn -0.7834 -0.2882 0.5506
vn 0.1666 0.6495 0.7419
vn 0.4989 0.8484 0.1768
vn 0.7970 0.4867 -0.3575
vn 0.4965 0.8623 0.0994
vn -0.0542 0.7932 0.6065
vn 0.7529 -0.2736 0.5986
vn -0.2140 -0.3612 0.9076
vn -0.5880 -0.5488 0.5941
vn -0.7468 -0.2587 0.6127
vn -0.7698 0.4639 0.4385
vn -0.7129 0.3790 0.5900
vn -0.1106 0.9623 0.2486
vn -0.1965 0.9559 0.2182
vn 0.3298 0.9396 -0.0918
vn 0.3552 0.9291 -0.1032
vn 0.5990 0.7429 -0.2989
vn 0.7158 0.5958 -0.3641
vn -0.1957 -0.1799 0.9640
vn 0.0928 -0.2365 0.9672
vn -0.4887 0.0788 0.8689
vn -0.5118 0.7985 0.3168
vn 0.1274 0.9519 -0.2786
vn 0.8371 0.1366 -0.5297
vn 0.7454 0.5765 -0.3348
vn 0.8141 0.1701 -0.5553
vn 0.6008 0.6895 -0.4046
vn 0.5062 0.8316 -0.2285
vn 0.5876 0.7966 -0.1419
vn 0.5943 0.6386 -0.4889
vn 0.7327 0.6162 -0.2888
vn 0.7856 0.2941 -0.5444
vn 0.8571 -0.0174 -0.5148
vn 0.9130 -0.1487 -0.3799
vn 0.8729 -0.4057 -0.2711
vn 0.8032 -0.3786 -0.4600
vn 0.8053 -0.5304 -0.2651
vn 0.5653 -0.7633 -0.3127
vn 0.7079 -0.5155 -0.4827
vn 0.2428 -0.9657 -0.0916
vn 0.7323 -0.3462 -0.5863
vn 0.7807 0.2195 -0.5851
vn 0.8443 0.3428 -0.4118
vn 0.3706 -0.8825 0.2897
vn -0.2909 -0.9178 0.2703
vn 0.2710 -0.9504 -0.1523
vn -0.3037 -0.9317 0.1991
vn 0.3121 -0.9493 -0.0383
vn -0.1993 -0.9786 0.0508
vn 0.7303 -0.5935 0.3382
vn 0.2833 -0.9514 -0.1204
vn 0.3638 -0.9034 0.2269
vn 0.5349 -0.8149 -0.2232
vn 0.6794 -0.5489 -0.4870
vn 0.8385 -0.3669 -0.4028
vn 0.7828 -0.6190 0.0640
vn 0.8334 0.3441 -0.4325
vn 0.8963 -0.4307 -0.1060
vn 0.7982 -0.5996 -0.0571
vn 0.3676 -0.7322 0.5734
vn 0.2161 0.1441 0.9657
vn 0.6818 -0.5758 0.4512
vn 0.7974 0.2618 0.5437
vn -0.0108 -0.4367 0.8995
vn 0.2153 -0.9578 0.1903
vn 0.2467 -0.9446 0.2166
vn 0.7368 -0.4703 0.4856
vn 0.2761 -0.9327 0.2319
vn 0.7298 -0.5270 0.4355
vn 0.7854 -0.2856 0.5491
vn 0.8943 0.2026 0.3991
vn 0.9821 -0.1532 -0.1094
vn 0.9181 0.3953 -0.0281
vn -0.2825 -0.6571 0.6989
vn 0.8005 0.3658 0.4747
vn 0.2795 0.9560 0.0888
vn -0.2405 0.8799 -0.4099
vn -0.2583 0.9430 -0.2098
vn -0.4265 0.6757 -0.6012
vn -0.3538 0.7938 -0.4947
vn -0.1183 0.9679 -0.2218
vn 0.3519 0.9137 0.2030
vn 0.8454 0.1655 0.5078
vn 0.7603 0.4189 0.4965
vn 0.3933 0.9008 0.1838
vn 0.2092 0.9745 0.0816
vn -0.6993 0.4645 -0.5433
vn -0.7937 -0.1970 -0.5755
vn -0.7974 -0.1716 -0.5786
vn -0.7226 0.4535 -0.5218
vn -0.5233 0.5785 -0.6257
vn -0.4767 0.6279 -0.6152
vn -0.2452 0.9537 -0.1742
vn 0.0624 0.9948 0.0806
vn 0.0107 0.9975 0.0692
vn 0.0547 0.9984 0.0133
vn -0.0620 0.7802 0.6224
vn -0.6447 0.4530 -0.6158
vn -0.7087 0.1951 -0.6780
vn -0.4219 0.8510 0.3126
vn 0.0411 0.9990 -0.0161
vn -0.3381 0.8611 -0.3797
vn -0.8758 0.4802 0.0478
vn -0.9959 -0.0050 0.0908
vn -0.7846 -0.1659 -0.5974
vn -0.6766 -0.5581 -0.4804
vn -0.7102 -0.5258 -0.4681
vn -0.2951 -0.9441 -0.1469
vn -0.2878 -0.9488 -0.1305
vn -0.6833 -0.5629 0.4650
vn -0.9264 -0.3585 0.1151
vn -0.6920 -0.5086 0.5123
vn -0.6855 -0.3534 0.6365
vn -0.4908 -0.2778 0.8258
vn 0.0906 -0.6102 -0.7871
vn -0.1031 -0.9493 -0.2969
vn -0.2078 -0.9628 -0.1730
vn -0.6431 -0.5843 -0.4949
vn -0.6216 0.2582 0.7396
vn -0.4836 -0.6388 -0.5984
vn -0.4309 0.7713 0.4684
vn 0.0962 0.9905 0.0981
vn 0.2280 0.9687 0.0982
vn 0.1668 0.6644 0.7285
vn -0.0108 0.9599 0.2800
vn -0.0020 0.3458 0.9383
vn -0.3666 0.7134 0.5972
vn 0.3033 0.2309 0.9245
vn -0.0300 -0.3957 -0.9179
vn -0.6501 -0.1716 -0.7402
vn -0.5602 0.5108 -0.6521
vn -0.2376 0.9500 -0.2024
vn 0.2792 0.2076 -0.9375
vn -0.2295 0.9290 -0.2903
vn 0.2539 0.9641 0.0781
vn 0.6758 0.7355 0.0477
vn 0.6647 0.6946 -0.2751
vn 0.3555 0.9255 -0.1304
vn -0.0569 0.9827 0.1760
vn -0.6186 0.6279 0.4723
vn -0.8082 0.1450 0.5708
vn 0.8956 0.1092 -0.4313
vn 0.8919 0.1553 -0.4248
vn 0.8673 0.1762 -0.4655
vn 0.8965 0.2408 -0.3719
vn 0.9206 0.1809 -0.3460
vn 0.9638 0.0559 -0.2607
vn 0.4416 -0.8557 0.2699
vn 0.2463 0.5721 0.7824
vn 0.2515 0.2830 0.9255
vn -0.1377 0.0739 0.9877
vn -0.1459 -0.3227 0.9352
vn 0.0579 -0.5572 0.8284
vn 0.4377 -0.6708 0.5987
vn 0.7427 -0.3606 0.5642
vn -0.0473 -0.8640 -0.5013
vn 0.0001 -0.9185 -0.3954
vn 0.0297 -0.9738 -0.2256
vn -0.1700 0.5258 0.8334
vn -0.1862 0.2955 0.9370
vn -0.1893 0.1293 0.9734
vn -0.1938 0.2388 0.9515
vn -0.1885 -0.1763 0.9661
vn -0.0356 0.3944 0.9183
vn 0.6028 -0.0676 0.7950
vn 0.7922 0.5129 0.3307
vn -0.0024 0.5685 0.8227
vn 0.5609 0.6808 0.4710
vn -0.0520 0.6509 0.7574
vn 0.5934 0.7542 0.2812
vn 0.0451 0.7753 0.6300
vn 0.3966 0.7201 0.5694
vn -0.1238 0.4403 0.8893
vn -0.2170 0.7496 0.6253
vn -0.1205 0.6637 0.7383
vn 0.0610 -0.7068 0.7048
vn -0.4278 0.6118 0.6654
vn -0.3510 0.5694 0.7433
vn -0.1317 0.5955 0.7925
vn -0.1316 0.4870 0.8635
vn -0.1051 0.5939 0.7977
vn -0.1793 0.6356 0.7509
vn 0.0132 0.7166 0.6974
vn -0.2385 0.4899 0.8385
vn -0.1331 0.5201 0.8437
vn -0.2489 0.4686 0.8477
vn -0.1515 0.4869 0.8602
vn -0.2253 0.3103 0.9235
vn 0.6517 0.5033 0.5674
vn 0.7127 0.5774 0.3983
vn 0.5860 0.6775 0.4445
vn 0.6727 0.6251 0.3959
vn 0.5219 0.7762 0.3537
vn 0.9055 0.1656 0.3906
vn -0.0774 -0.9960 -0.0452
vn -0.4167 -0.8980 0.1416
vn 0.9427 0.1124 0.3141
vn 0.6483 0.3085 0.6961
vn 0.6944 -0.6298 0.3480
vn 0.4768 -0.6661 0.5736
vn 0.0918 -0.9791 -0.1815
vn 0.2244 -0.9592 -0.1720
vn 0.5097 -0.7490 -0.4234
vn 0.9259 -0.3606 0.1129
vn 0.0490 -0.9889 -0.1403
vn 0.5510 -0.7394 -0.3868
vn 0.1011 -0.9918 -0.0783
vn 0.5918 -0.6837 -0.4271
vn 0.7849 -0.2196 -0.5794
vn 0.9115 0.3079 0.2728
vn 0.7672 0.3543 -0.5347
vn 0.8129 -0.1542 -0.5617
vn 0.2367 0.9664 -0.0997
vn 0.5660 0.7658 -0.3054
vn 0.7824 0.3540 -0.5123
vn 0.8107 -0.0789 -0.5802
vn 0.5555 -0.5933 -0.5826
vn 0.0029 -0.9963 0.0864
vn 0.5123 -0.4139 -0.7525
vn 0.1000 -0.9916 0.0819
vn -0.0971 -0.3286 0.9395
vn 0.2323 -0.9609 0.1511
vn 0.5450 -0.5304 0.6494
vn 0.0480 -0.9844 0.1690
vn 0.5029 -0.5777 0.6430
vn -0.1042 -0.9490 0.2974
vn 0.0173 -0.7183 0.6955
vn 0.7403 0.4888 -0.4616
vn 0.3897 0.9077 -0.1558
vn -0.0875 0.9918 0.0930
vn -0.2781 0.9409 0.1932
vn -0.6401 0.6687 0.3784
vn -0.7263 0.5533 0.4079
vn -0.8285 -0.1586 0.5371
vn -0.6911 0.5729 0.4406
vn -0.2715 0.9442 0.1865
vn -0.1870 0.9728 0.1367
vn 0.6337 -0.0230 0.7733
vn 0.6809 -0.1719 0.7119
vn 0.6946 0.2831 0.6613
vn 0.5541 -0.0989 0.8265
vn -0.5698 -0.2330 0.7881
vn -0.0832 -0.1162 -0.9897
vn 0.6608 -0.1318 -0.7389
vn 0.6697 0.3120 -0.6739
vn 0.4187 0.8662 -0.2729
vn -0.1522 0.9669 0.2049
vn 0.5312 0.2810 0.7993
vn -0.6043 0.2129 -0.7678
vn -0.1053 0.1669 0.9803
vn 0.1551 0.7682 0.6211
vn 0.1709 0.7949 0.5822
vn -0.2666 0.9590 0.0964
vn -0.3396 -0.8896 -0.3054
vn -0.4321 -0.8092 -0.3981
vn -0.6823 -0.5182 -0.5157
vn -0.7096 -0.1445 -0.6897
vn -0.7875 -0.0326 -0.6154
vn -0.8198 -0.2363 -0.5217
vn -0.7853 0.1464 -0.6015
vn -0.9521 -0.2143 -0.2180
vn -0.9296 0.2340 -0.2848
vn -0.9561 -0.0430 0.2899
vn -0.7997 0.5900 0.1110
vn -0.6450 -0.5682 -0.5110
vn -0.7525 -0.6181 -0.2275
vn -0.6647 -0.7314 0.1522
vn -0.5091 -0.8383 -0.1951
vn -0.5318 -0.7997 0.2788
vn -0.8369 -0.2418 0.4911
vn -0.7876 0.3367 0.5161
vn -0.6662 0.6272 0.4036
vn 0.1319 0.7539 0.6436
vn 0.6619 0.4664 0.5868
vn -0.4948 -0.8386 0.2278
vn -0.7824 -0.3860 0.4887
vn -0.8119 -0.2835 0.5103
vn -0.3902 0.1678 0.9053
vn -0.3161 -0.9384 0.1393
vn -0.5219 -0.8136 0.2561
vn 0.0183 -0.6873 0.7261
vn -0.0950 -0.3131 0.9449
vn 0.2691 0.4202 0.8666
vn 0.6340 0.3856 0.6703
vn 0.1685 0.7892 0.5905
vn 0.2850 0.7615 0.5822
vn 0.7840 0.3132 0.5359
vn 0.2760 0.5818 0.7651
vn 0.5882 0.1996 0.7837
vn -0.3899 0.7146 0.5808
vn -0.6650 0.3199 0.6749
vn -0.2870 -0.1276 0.9494
vn -0.3584 0.8821 0.3057
vn -0.4201 0.8683 0.2638
vn -0.5294 0.6949 0.4867
vn -0.0526 -0.1070 0.9929
vn 0.5174 -0.1583 0.8410
vn -0.9885 0.0166 0.1506
vn -0.8759 0.4354 -0.2077
vn -0.8068 0.5579 -0.1943
vn -0.8207 0.5405 -0.1853
vn -0.8978 0.4194 -0.1342
vn -0.9755 -0.2186 0.0247
vn -0.8092 -0.1850 -0.5576
vn -0.5084 -0.6443 -0.5713
vn -0.5743 -0.6059 -0.5505
vn 0.1270 -0.9405 -0.3151
vn 0.1332 -0.9544 -0.2670
vn 0.8455 -0.4501 0.2872
vn 0.7000 -0.5164 0.4933
vn 0.1635 -0.9158 -0.3668
vn 0.6191 -0.7544 0.2182
vn 0.1210 -0.9096 -0.3974
vn 0.3620 -0.9147 0.1796
vn -0.5754 -0.8166 -0.0459
vn 0.1872 -0.9437 -0.2727
vn 0.8535 -0.4298 0.2945
vn 0.0079 -0.9326 0.3609
vn 0.7026 -0.4267 0.5694
vn 0.2375 -0.3251 0.9154
vn 0.1062 -0.8592 -0.5006
vn 0.0956 -0.8607 -0.5001
vn -0.3482 -0.5335 -0.7708
vn -0.4159 -0.4152 -0.8091
vn -0.7383 0.0248 -0.6740
vn -0.7877 -0.1220 -0.6039
vn -0.8335 -0.0396 -0.5511
vn -0.8557 -0.0011 -0.5174
vn -0.8684 -0.0980 -0.4861
vn -0.5316 -0.6250 -0.5716
vn -0.8992 0.3830 -0.2115
vn -0.2490 -0.8042 -0.5397
vn -0.5196 -0.4653 -0.7166
vn 0.2268 -0.6764 0.7008
vn 0.3280 -0.9318 0.1554
vn 0.4128 -0.9095 0.0501
vn 0.0229 -0.9896 0.1417
vn -0.8316 0.4677 0.2996
vn -0.6525 -0.2405 -0.7186
vn -0.6386 -0.0768 -0.7657
vn -0.8507 0.2408 -0.4673
vn 0.1110 0.0435 0.9929
vn -0.8710 0.1887 -0.4536
vn -0.9228 -0.2318 -0.3078
vn -0.7716 0.2789 -0.5717
vn -0.3523 0.9120 -0.2099
vn -0.5938 0.7211 -0.3570
vn -0.7927 0.3537 -0.4965
vn -0.8192 -0.3598 -0.4466
vn -0.8954 -0.4335 -0.1018
vn -0.6414 -0.7272 0.2446
vn -0.8877 0.4374 -0.1438
vn -0.8377 -0.3119 -0.4484
vn -0.8182 -0.3694 -0.4405
vn -0.8706 0.3974 -0.2900
vn -0.4085 0.8744 -0.2618
vn -0.5043 0.8624 -0.0444
vn -0.3334 0.8505 0.4068
vn -0.2452 0.8318 0.4980
vn -0.9138 0.4027 0.0526
vn -0.8461 -0.3483 -0.4035
vn -0.8535 0.4934 0.1677
vn -0.9307 0.3458 0.1191
vn -0.8335 -0.3992 -0.3821
vn -0.8892 0.3884 0.2417
vn -0.9352 0.1994 0.2925
vn -0.7802 -0.5457 -0.3058
vn -0.8149 -0.5220 0.2519
vn -0.0776 0.9951 0.0620
vn 0.2689 0.9488 0.1660
vn -0.3357 0.9340 -0.1220
vn -0.2814 0.9527 -0.1151
vn -0.3429 0.9324 0.1145
vn -0.6092 0.7433 0.2765
vn -0.5053 0.1157 0.8551
vn 0.6504 0.4817 0.5873
vn -0.1202 0.7592 0.6396
vn -0.1935 0.8120 0.5506
vn -0.0968 0.7700 0.6307
vn 0.2274 0.9382 0.2608
vn 0.2951 0.9114 0.2868
vn -0.1093 0.9923 0.0584
vn -0.2007 0.9730 0.1139
vn -0.3109 0.8781 0.3636
vn -0.3788 0.8539 0.3569
vn -0.3842 0.8342 0.3956
vn -0.8853 0.4626 0.0474
vn -0.2517 0.7716 0.5842
vn -0.9210 0.3728 0.1128
vn -0.1981 0.6502 0.7335
vn -0.9768 0.1482 0.1544
vn -0.1055 0.2921 0.9506
vn -0.6088 -0.2159 0.7634
vn 0.1260 -0.3709 0.9201
vn -0.2971 0.8052 0.5132
vn -0.6758 -0.7360 -0.0386
vn 0.3963 -0.9134 0.0933
vn 0.3615 -0.1681 0.9171
vn -0.1355 0.5752 0.8067
vn -0.3074 0.7176 0.6249
vn -0.1594 0.7164 0.6792
vn -0.1698 0.8111 0.5597
vn -0.2827 0.6742 0.6822
vn -0.1782 0.7985 0.5750
vn -0.1566 0.8059 0.5710
vn 0.0613 0.0813 0.9948
vn -0.0420 0.5788 0.8144
vn 0.0072 0.3942 0.9190
vn 0.6215 0.0749 0.7798
vn 0.6209 -0.7823 0.0506
vn -0.1359 0.8610 0.4901
vn -0.1168 0.8789 0.4625
vn 0.0513 0.8882 0.4566
vn 0.4283 0.6395 0.6385
vn 0.5642 0.6107 0.5556
vn 0.2031 0.8997 0.3865
vn 0.6418 0.5905 0.4893
vn 0.6361 0.5807 0.5081
vn 0.6773 0.5779 0.4553
vn -0.0338 0.9443 0.3272
vn 0.3263 -0.1046 0.9395
vn -0.2998 -0.9338 -0.1952
vn -0.9726 -0.2069 -0.1062
vn -0.9274 0.3738 -0.0117
vn -0.5456 0.6795 0.4905
vn 0.8435 0.1522 0.5151
vn 0.7826 -0.2966 0.5473
vn 0.7531 -0.3524 0.5556
vn 0.7603 -0.4431 0.4749
vn 0.8486 -0.4291 0.3095
vn 0.8385 0.1177 0.5321
vn 0.8031 -0.5786 -0.1422
vn 0.7553 -0.6366 -0.1559
vn 0.0120 0.3213 0.9469
vn 0.2306 -0.7147 -0.6603
vn 0.7633 -0.6459 0.0111
vn 0.2666 -0.9252 0.2701
vn 0.3740 -0.6815 -0.6290
vn 0.3755 -0.8129 -0.4452
vn 0.2897 -0.9487 -0.1268
vn 0.2974 -0.9120 0.2826
vn 0.2795 -0.8908 0.3582
vn 0.3430 -0.7260 0.5961
vn 0.6781 -0.6170 0.3993
vn 0.2145 -0.7791 0.5891
vn 0.2264 -0.8126 -0.5371
vn 0.1684 -0.6709 -0.7222
vn -0.0876 -0.7092 0.6996
vn -0.0797 -0.7413 0.6665
vn 0.0248 -0.9764 0.2147
vn 0.1658 -0.9614 0.2198
vn 0.2277 -0.9737 0.0119
vn 0.2575 -0.8268 -0.5002
vn 0.2002 -0.7319 -0.6513
vn 0.1136 -0.7785 -0.6173
vn 0.0706 -0.9710 0.2282
vn 0.2031 -0.9740 0.0999
vn -0.0472 -0.9907 0.1272
vn -0.0231 -0.8854 -0.4642
vn -0.0185 -0.7734 -0.6336
vn -0.0346 -0.7185 -0.6946
vn -0.6712 -0.5203 -0.5280
vn -0.7740 -0.4376 -0.4576
vn -0.8009 -0.4463 -0.3991
vn 0.3897 -0.8843 0.2571
vn -0.5068 -0.8619 -0.0179
vn -0.2845 -0.9194 -0.2715
vn -0.1700 -0.9520 -0.2545
vn -0.0631 -0.8840 -0.4632
vn 0.8674 -0.4931 0.0668
vn -0.0072 -0.8348 -0.5505
vn 0.9227 -0.3829 -0.0443
vn -0.0834 -0.9110 -0.4039
vn 0.8657 -0.4512 0.2168
vn 0.0854 -0.9207 0.3809
vn 0.6461 -0.4123 0.6424
vn 0.7068 0.3669 0.6048
vn 0.0724 0.0272 0.9970
vn 0.7120 0.4706 0.5212
vn 0.5718 -0.7701 0.2828
vn 0.8787 -0.1174 0.4627
vn 0.5216 -0.5548 0.6481
vn 0.3054 0.0206 0.9520
vn 0.4192 0.3800 0.8245
vn 0.3929 0.5209 0.7578
vn -0.1805 0.6705 0.7197
vn -0.2615 0.4811 0.8368
vn -0.1847 -0.2966 0.9370
vn -0.5830 0.5152 0.6283
vn -0.8057 0.2882 0.5174
vn -0.8792 -0.1038 0.4650
vn -0.5816 -0.4531 0.6756
vn -0.1845 -0.3091 0.9330
vn -0.1397 -0.0794 0.9870
vn 0.1253 0.2867 0.9498
vn -0.3583 0.3601 0.8614
vn -0.2836 0.5664 0.7738
vn -0.2053 0.6967 0.6873
vn -0.5036 0.8307 -0.2371
vn -0.4330 0.9010 -0.0273
vn -0.6606 0.6588 -0.3601
vn -0.1647 0.9855 0.0416
vn 0.1175 0.8979 0.4242
vn -0.6052 0.6434 -0.4689
vn 0.5395 0.3397 0.7704
vn 0.4725 -0.1795 0.8628
vn -0.4113 -0.3574 0.8385
vn -0.8441 -0.2544 0.4720
vn -0.8629 -0.2992 0.4073
vn 0.4154 0.7740 0.4779
vn -0.0903 0.9935 0.0691
vn -0.4192 0.8624 -0.2839
vn -0.7637 0.3712 -0.5281
vn -0.8008 0.2433 -0.5474
vn -0.8655 0.0493 -0.4985
vn -0.7594 -0.2702 -0.5918
vn -0.3995 0.8783 -0.2628
vn -0.6678 -0.5657 -0.4838
vn -0.6912 -0.1623 -0.7042
vn -0.6621 -0.6299 -0.4061
vn -0.3232 -0.9305 -0.1725
vn -0.7572 -0.6226 0.1976
vn -0.6293 0.4233 -0.6517
vn -0.6688 0.4987 -0.5514
vn -0.6711 0.4716 -0.5720
vn -0.7709 0.5158 -0.3738
vn -0.4616 0.8625 -0.2072
vn -0.1502 0.9883 0.0253
vn 0.2314 0.8562 0.4619
vn 0.6275 0.4128 0.6602
vn -0.3898 0.8780 -0.2777
vn -0.1158 0.9933 -0.0035
vn 0.2572 0.9139 0.3141
vn -0.1554 0.9875 -0.0281
vn -0.4596 -0.5968 -0.6577
vn -0.4118 -0.6153 -0.6722
vt 0.458619 0.467689
vt 0.447447 0.447773
vt 0.459151 0.448077
vt 0.475054 0.441348
vt 0.482544 0.454533
vt 0.504296 0.425972
vt 0.488102 0.420060
vt 0.495345 0.396454
vt 0.044234 0.584530
vt 0.041854 0.590466
vt 0.043086 0.586153
vt 0.044360 0.592143
vt 0.037974 0.602086
vt 0.040929 0.603812
vt 0.033872 0.620010
vt 0.037184 0.621800
vt 0.032396 0.632708
vt 0.036293 0.630491
vt 0.036638 0.588818
vt 0.038404 0.584378
vt 0.032426 0.600780
vt 0.027200 0.618427
vt 0.023961 0.631127
vt 0.021516 0.638401
vt 0.033740 0.641731
vt 0.017852 0.649871
vt 0.030538 0.653730
vt 0.016090 0.662611
vt 0.026823 0.669027
vt 0.012640 0.667983
vt 0.013440 0.677057
vt 0.021545 0.688338
vt 0.040269 0.676094
vt 0.040074 0.633408
vt 0.058590 0.664799
vt 0.050009 0.689598
vt 0.046562 0.660129
vt 0.048824 0.646951
vt 0.049924 0.636747
vt 0.049893 0.626246
vt 0.041791 0.622674
vt 0.038122 0.622000
vt 0.056559 0.628366
vt 0.060946 0.640517
vt 0.060173 0.651587
vt 0.061554 0.631329
vt 0.066911 0.624785
vt 0.061874 0.623141
vt 0.057434 0.620151
vt 0.051050 0.618158
vt 0.043444 0.615701
vt 0.038916 0.616088
vt 0.050759 0.594074
vt 0.041895 0.603952
vt 0.046647 0.593447
vt 0.046277 0.604974
vt 0.052661 0.607830
vt 0.057894 0.611368
vt 0.062089 0.616678
vt 0.064419 0.617466
vt 0.067072 0.616738
vt 0.069284 0.623161
vt 0.068378 0.633636
vt 0.070387 0.633022
vt 0.070468 0.643790
vt 0.059060 0.601977
vt 0.054655 0.599405
vt 0.060349 0.608235
vt 0.076240 0.631303
vt 0.074735 0.626121
vt 0.072684 0.618645
vt 0.070388 0.611624
vt 0.074258 0.609752
vt 0.070793 0.601501
vt 0.079926 0.609636
vt 0.074802 0.601282
vt 0.068472 0.606045
vt 0.079215 0.624343
vt 0.076470 0.615199
vt 0.080692 0.630990
vt 0.077730 0.642402
vt 0.083969 0.640667
vt 0.078339 0.651689
vt 0.085788 0.648922
vt 0.078749 0.663635
vt 0.089411 0.663468
vt 0.079410 0.686205
vt 0.091032 0.685536
vt 0.100615 0.663613
vt 0.102762 0.684255
vt 0.114976 0.661852
vt 0.112314 0.642046
vt 0.124931 0.638733
vt 0.131601 0.628668
vt 0.133397 0.635983
vt 0.128504 0.659673
vt 0.118109 0.682958
vt 0.105316 0.712866
vt 0.085929 0.712866
vt 0.070953 0.686314
vt 0.071316 0.663638
vt 0.071690 0.653576
vt 0.139617 0.656607
vt 0.131362 0.680485
vt 0.148741 0.664597
vt 0.150873 0.656223
vt 0.156362 0.658182
vt 0.144159 0.685043
vt 0.161244 0.665152
vt 0.161316 0.657888
vt 0.158896 0.687072
vt 0.142148 0.712866
vt 0.117241 0.712866
vt 0.100060 0.757442
vt 0.078663 0.756685
vt 0.121677 0.758443
vt 0.141208 0.757264
vt 0.159073 0.755473
vt 0.172576 0.657622
vt 0.166884 0.669830
vt 0.165973 0.691651
vt 0.157269 0.712866
vt 0.169148 0.712866
vt 0.171391 0.754335
vt 0.181092 0.753134
vt 0.181932 0.712866
vt 0.184395 0.697794
vt 0.176177 0.695980
vt 0.188275 0.678991
vt 0.181357 0.677124
vt 0.189756 0.671245
vt 0.182442 0.668851
vt 0.191643 0.661012
vt 0.185121 0.658756
vt 0.173334 0.672832
vt 0.175925 0.665822
vt 0.179289 0.657334
vt 0.182578 0.649002
vt 0.187710 0.650748
vt 0.190736 0.642220
vt 0.206314 0.629476
vt 0.199898 0.633961
vt 0.201634 0.626737
vt 0.206368 0.637341
vt 0.196345 0.644193
vt 0.204823 0.647546
vt 0.193455 0.652498
vt 0.200057 0.655268
vt 0.197556 0.663823
vt 0.196290 0.673426
vt 0.194223 0.631749
vt 0.196998 0.624809
vt 0.189200 0.629627
vt 0.191779 0.622110
vt 0.184861 0.627846
vt 0.179863 0.625256
vt 0.175659 0.635771
vt 0.171528 0.633433
vt 0.168610 0.641605
vt 0.163459 0.638071
vt 0.160869 0.644538
vt 0.165736 0.648968
vt 0.186072 0.619958
vt 0.175765 0.622402
vt 0.183535 0.617243
vt 0.167251 0.631268
vt 0.155736 0.651846
vt 0.168050 0.654335
vt 0.178056 0.647151
vt 0.185223 0.639758
vt 0.180143 0.637936
vt 0.172876 0.644402
vt 0.117388 0.578704
vt 0.111462 0.576641
vt 0.115215 0.574915
vt 0.112607 0.580566
vt 0.058560 0.597185
vt 0.062482 0.603927
vt 0.842621 0.320008
vt 0.814830 0.290612
vt 0.814473 0.323504
vt 0.790925 0.322010
vt 0.791381 0.291426
vt 0.763527 0.292203
vt 0.760628 0.263236
vt 0.736791 0.259190
vt 0.736371 0.220056
vt 0.860312 0.305048
vt 0.859581 0.362921
vt 0.846221 0.376857
vt 0.811134 0.393821
vt 0.761422 0.401511
vt 0.710792 0.215211
vt 0.716309 0.189249
vt 0.711660 0.261045
vt 0.744036 0.284892
vt 0.759953 0.332470
vt 0.751601 0.367745
vt 0.733470 0.399541
vt 0.738476 0.357564
vt 0.716478 0.383265
vt 0.708886 0.346726
vt 0.696098 0.370993
vt 0.679480 0.356295
vt 0.682304 0.320851
vt 0.656485 0.318945
vt 0.658876 0.287753
vt 0.687937 0.248875
vt 0.659049 0.247150
vt 0.687199 0.288742
vt 0.726339 0.293223
vt 0.723908 0.318222
vt 0.640697 0.295244
vt 0.626953 0.250973
vt 0.662811 0.212179
vt 0.626953 0.207261
vt 0.650210 0.175964
vt 0.626953 0.172269
vt 0.654893 0.147598
vt 0.626953 0.149120
vt 0.626953 0.125020
vt 0.666805 0.184299
vt 0.683483 0.213588
vt 0.685727 0.186316
vt 0.667555 0.163154
vt 0.703619 0.188433
vt 0.652262 0.334667
vt 0.637523 0.327078
vt 0.626953 0.296024
vt 0.684705 0.017383
vt 0.654505 0.035367
vt 0.685056 0.035367
vt 0.654487 0.017383
vt 0.626953 0.035367
vt 0.626953 0.050964
vt 0.654364 0.050964
vt 0.626953 0.084620
vt 0.654294 0.084964
vt 0.655767 0.126206
vt 0.686421 0.147804
vt 0.683422 0.167517
vt 0.701310 0.169475
vt 0.626953 0.017383
vt 0.683487 0.123736
vt 0.714111 0.123390
vt 0.737748 0.088353
vt 0.754062 0.088322
vt 0.754201 0.071844
vt 0.754250 0.066090
vt 0.733026 0.088362
vt 0.714362 0.088397
vt 0.680437 0.085396
vt 0.684880 0.050964
vt 0.714628 0.035367
vt 0.718086 0.050964
vt 0.785137 0.088466
vt 0.806295 0.088091
vt 0.805842 0.050964
vt 0.785211 0.050964
vt 0.772165 0.050964
vt 0.768252 0.050964
vt 0.754377 0.050964
vt 0.733085 0.050964
vt 0.726536 0.050964
vt 0.734740 0.035367
vt 0.715314 0.017383
vt 0.785563 0.035367
vt 0.787828 0.037660
vt 0.754992 0.017383
vt 0.741750 0.035367
vt 0.754177 0.035367
vt 0.787192 0.017383
vt 0.808409 0.017383
vt 0.807254 0.035367
vt 0.828293 0.035367
vt 0.828791 0.050964
vt 0.847737 0.035367
vt 0.846534 0.050964
vt 0.874959 0.035367
vt 0.874959 0.050964
vt 0.874959 0.017383
vt 0.847692 0.017383
vt 0.830008 0.017383
vt 0.874959 0.250973
vt 0.875647 0.296024
vt 0.853003 0.249838
vt 0.874959 0.207261
vt 0.848271 0.214799
vt 0.874959 0.172269
vt 0.845748 0.180028
vt 0.874959 0.149120
vt 0.848804 0.154157
vt 0.874959 0.125020
vt 0.848862 0.130471
vt 0.874959 0.084620
vt 0.848521 0.086768
vt 0.830902 0.087357
vt 0.824108 0.216402
vt 0.829065 0.134906
vt 0.786229 0.168064
vt 0.758386 0.168372
vt 0.760702 0.191647
vt 0.786609 0.190692
vt 0.785963 0.217745
vt 0.805546 0.188136
vt 0.806300 0.217000
vt 0.825250 0.183835
vt 0.826994 0.161166
vt 0.806258 0.139604
vt 0.788528 0.138398
vt 0.756860 0.136807
vt 0.804588 0.166391
vt 0.752806 0.112666
vt 0.720946 0.133820
vt 0.721098 0.159983
vt 0.739735 0.188963
vt 0.759311 0.217962
vt 0.786487 0.261105
vt 0.809300 0.257766
vt 0.833700 0.252693
vt 0.204327 0.619675
vt 0.199454 0.617224
vt 0.194071 0.615976
vt 0.012586 0.660018
vt 0.012239 0.650740
vt 0.014943 0.637735
vt 0.020052 0.631446
vt 0.023914 0.618110
vt 0.029817 0.599758
vt 0.034407 0.587910
vt 0.038615 0.582275
vt 0.847373 0.002405
vt 0.874855 0.002405
vt 0.874855 0.012157
vt 0.848171 0.012157
vt 0.830807 0.012157
vt 0.831378 0.002405
vt 0.808903 0.002405
vt 0.809224 0.012157
vt 0.787801 0.012157
vt 0.787836 0.002405
vt 0.755291 0.012157
vt 0.754798 0.002405
vt 0.715209 0.012157
vt 0.715717 0.002405
vt 0.200396 0.688857
vt 0.194530 0.694946
vt 0.194926 0.684193
vt 0.195506 0.749084
vt 0.194164 0.712866
vt 0.202105 0.674401
vt 0.203006 0.663732
vt 0.204723 0.656206
vt 0.207856 0.648094
vt 0.210364 0.635626
vt 0.207554 0.627940
vt 0.080614 0.592588
vt 0.077038 0.598636
vt 0.085315 0.628516
vt 0.083899 0.621584
vt 0.085587 0.604283
vt 0.086729 0.585751
vt 0.091088 0.599385
vt 0.092225 0.583790
vt 0.096634 0.594674
vt 0.095974 0.578792
vt 0.100888 0.591142
vt 0.101742 0.611410
vt 0.106406 0.609079
vt 0.104295 0.619253
vt 0.108402 0.615814
vt 0.108695 0.634871
vt 0.114755 0.633349
vt 0.090261 0.617647
vt 0.100470 0.645482
vt 0.101039 0.637441
vt 0.093197 0.574795
vt 0.090969 0.579700
vt 0.087990 0.576035
vt 0.092150 0.647044
vt 0.088174 0.640043
vt 0.092004 0.625345
vt 0.096333 0.613649
vt 0.098706 0.621447
vt 0.094224 0.638875
vt 0.124522 0.630990
vt 0.118870 0.625352
vt 0.121374 0.615393
vt 0.117698 0.613530
vt 0.120391 0.611312
vt 0.117660 0.598533
vt 0.113269 0.597954
vt 0.116681 0.594977
vt 0.113805 0.585110
vt 0.111600 0.587509
vt 0.118827 0.582994
vt 0.122077 0.592720
vt 0.122935 0.596107
vt 0.126778 0.608941
vt 0.127493 0.613671
vt 0.058833 0.755984
vt 0.033046 0.752437
vt 0.035723 0.712866
vt 0.034065 0.691567
vt 0.018389 0.696417
vt 0.057603 0.712866
vt 0.148663 0.652150
vt 0.141965 0.633856
vt 0.139188 0.625607
vt 0.133038 0.609674
vt 0.127811 0.593255
vt 0.123376 0.583438
vt 0.685263 0.012157
vt 0.686451 0.002405
vt 0.654342 0.002405
vt 0.654329 0.012157
vt 0.626848 0.012157
vt 0.626848 0.002405
vt 0.847884 0.017383
vt 0.874855 0.017383
vt 0.874855 0.035367
vt 0.874855 0.050964
vt 0.847632 0.035367
vt 0.829861 0.017383
vt 0.874855 0.125020
vt 0.848416 0.086768
vt 0.874855 0.084620
vt 0.847145 0.050964
vt 0.828322 0.035367
vt 0.808309 0.017383
vt 0.807092 0.035367
vt 0.828669 0.050964
vt 0.780102 0.042299
vt 0.788163 0.044725
vt 0.805665 0.050964
vt 0.830798 0.087357
vt 0.848758 0.130471
vt 0.874855 0.149120
vt 0.848700 0.154157
vt 0.874855 0.172269
vt 0.845643 0.180028
vt 0.874855 0.207261
vt 0.848167 0.214799
vt 0.874855 0.250973
vt 0.852303 0.247959
vt 0.875543 0.296024
vt 0.854971 0.300995
vt 0.806190 0.088091
vt 0.785032 0.088466
vt 0.753958 0.088322
vt 0.745604 0.080363
vt 0.717500 0.110764
vt 0.720842 0.133820
vt 0.683383 0.123732
vt 0.714258 0.088397
vt 0.754721 0.050964
vt 0.754063 0.035367
vt 0.834238 0.251129
vt 0.834491 0.277868
vt 0.816133 0.287395
vt 0.824004 0.216402
vt 0.825145 0.183835
vt 0.826889 0.161166
vt 0.828960 0.134906
vt 0.806154 0.139604
vt 0.788423 0.138398
vt 0.756755 0.136807
vt 0.806195 0.217000
vt 0.804483 0.166391
vt 0.805442 0.188136
vt 0.786504 0.190692
vt 0.786125 0.168064
vt 0.758281 0.168372
vt 0.626848 0.172269
vt 0.655668 0.210945
vt 0.626848 0.207261
vt 0.658432 0.248747
vt 0.669746 0.213413
vt 0.687897 0.250492
vt 0.683379 0.213588
vt 0.685623 0.186316
vt 0.703515 0.188433
vt 0.683317 0.167517
vt 0.701205 0.169475
vt 0.686316 0.147804
vt 0.720994 0.159983
vt 0.666700 0.184299
vt 0.667450 0.163154
vt 0.654788 0.147598
vt 0.650105 0.175964
vt 0.626848 0.149120
vt 0.655662 0.126206
vt 0.681750 0.086796
vt 0.718570 0.050964
vt 0.714649 0.035367
vt 0.754909 0.017383
vt 0.787099 0.017383
vt 0.626848 0.125020
vt 0.654189 0.084964
vt 0.684749 0.050964
vt 0.684922 0.035367
vt 0.715167 0.017383
vt 0.626848 0.084620
vt 0.654281 0.050964
vt 0.654418 0.035367
vt 0.654427 0.017383
vt 0.684571 0.017383
vt 0.626848 0.050964
vt 0.626848 0.035367
vt 0.626848 0.017383
vt 0.626953 0.012157
vt 0.654447 0.002405
vt 0.626953 0.002405
vt 0.654433 0.012157
vt 0.686555 0.002405
vt 0.685368 0.012157
vt 0.715822 0.002405
vt 0.715314 0.012157
vt 0.754903 0.002405
vt 0.755396 0.012157
vt 0.787941 0.002405
vt 0.787906 0.012157
vt 0.809008 0.002405
vt 0.809328 0.012157
vt 0.831483 0.002405
vt 0.830912 0.012157
vt 0.848276 0.012157
vt 0.847478 0.002405
vt 0.874959 0.002405
vt 0.874959 0.012157
vt 0.100612 0.579095
vt 0.105360 0.589832
vt 0.109637 0.605104
vt 0.111427 0.611704
vt 0.735437 0.320860
vt 0.755940 0.355371
vt 0.725352 0.353872
vt 0.762409 0.322286
vt 0.786382 0.326480
vt 0.716374 0.383265
vt 0.733366 0.399541
vt 0.761317 0.401511
vt 0.796550 0.400170
vt 0.824395 0.389405
vt 0.819102 0.322141
vt 0.848308 0.375074
vt 0.841851 0.309129
vt 0.859266 0.363983
vt 0.874668 0.345542
vt 0.885330 0.320230
vt 0.790629 0.288880
vt 0.763270 0.290264
vt 0.740209 0.289756
vt 0.709186 0.315264
vt 0.702558 0.343260
vt 0.694058 0.336087
vt 0.684284 0.315494
vt 0.737917 0.258635
vt 0.660006 0.285515
vt 0.686585 0.286707
vt 0.655862 0.303343
vt 0.639086 0.295704
vt 0.637418 0.327078
vt 0.626848 0.296024
vt 0.626848 0.320230
vt 0.626848 0.250973
vt 0.708154 0.290358
vt 0.711401 0.259574
vt 0.710687 0.215211
vt 0.716205 0.189249
vt 0.739630 0.188963
vt 0.760598 0.191647
vt 0.785858 0.217745
vt 0.809002 0.256422
vt 0.736266 0.220056
vt 0.759206 0.217962
vt 0.786548 0.258495
vt 0.760534 0.259668
s 1
usemtl t_arctic.001
f 13/1/1 12/2/2 14/3/3
f 13/1/1 14/3/3 15/4/4
f 13/1/1 15/4/4 16/5/5
f 17/6/6 16/5/5 15/4/4
f 17/6/6 19/7/7 18/8/8
f 17/6/6 15/4/4 19/7/7
f 24/9/9 25/10/10 26/11/11
f 24/9/9 27/12/12 25/10/10
f 27/12/12 28/13/13 25/10/10
f 27/12/12 29/14/14 28/13/13
f 29/14/14 30/15/15 28/13/13
f 29/14/14 31/16/16 30/15/15
f 31/16/16 32/17/17 30/15/15
f 31/16/16 33/18/18 32/17/17
f 26/11/11 34/19/19 35/20/20
f 26/11/11 25/10/10 34/19/19
f 25/10/10 36/21/21 34/19/19
f 25/10/10 28/13/13 36/21/21
f 28/13/13 37/22/22 36/21/21
f 28/13/13 30/15/15 37/22/22
f 30/15/15 38/23/23 37/22/22
f 30/15/15 32/17/17 38/23/23
f 39/24/24 38/23/23 32/17/17
f 39/24/24 32/17/17 40/25/25
f 41/26/26 39/24/24 40/25/25
f 41/26/26 40/25/25 42/27/27
f 43/28/28 41/26/26 42/27/27
f 43/28/28 42/27/27 44/29/29
f 45/30/30 43/28/28 44/29/29
f 44/29/29 46/31/31 45/30/30
f 44/29/29 47/32/32 46/31/31
f 47/32/32 44/29/29 48/33/33
f 32/17/17 49/34/34 40/25/25
f 49/34/34 32/17/17 33/18/18
f 48/33/33 50/35/35 51/36/36
f 48/33/33 52/37/37 50/35/35
f 44/29/29 52/37/37 48/33/33
f 44/29/29 42/27/27 52/37/37
f 42/27/27 53/38/38 52/37/37
f 42/27/27 40/25/25 53/38/38
f 40/25/25 54/39/39 53/38/38
f 40/25/25 49/34/34 54/39/39
f 55/40/40 54/39/39 49/34/34
f 55/40/40 49/34/34 56/41/41
f 56/41/41 49/34/34 33/18/18
f 56/41/41 33/18/18 57/42/42
f 58/43/43 54/39/39 55/40/40
f 58/43/43 59/44/44 54/39/39
f 53/38/38 54/39/39 59/44/44
f 53/38/38 59/44/44 60/45/45
f 52/37/37 53/38/38 60/45/45
f 52/37/37 60/45/45 50/35/35
f 58/43/43 61/46/46 59/44/44
f 62/47/47 61/46/46 63/48/48
f 58/43/43 63/48/48 61/46/46
f 58/43/43 64/49/49 63/48/48
f 64/49/49 58/43/43 55/40/40
f 64/49/49 55/40/40 65/50/50
f 65/50/50 55/40/40 56/41/41
f 65/50/50 56/41/41 66/51/51
f 66/51/51 56/41/41 57/42/42
f 66/51/51 57/42/42 67/52/52
f 68/53/53 69/54/54 70/55/55
f 68/53/53 71/56/56 69/54/54
f 71/56/56 67/52/52 69/54/54
f 71/56/56 66/51/51 67/52/52
f 72/57/57 66/51/51 71/56/56
f 72/57/57 65/50/50 66/51/51
f 73/58/58 65/50/50 72/57/57
f 73/58/58 64/49/49 65/50/50
f 64/49/49 73/58/58 74/59/59
f 64/49/49 74/59/59 63/48/48
f 75/60/60 63/48/48 74/59/59
f 75/60/60 62/47/47 63/48/48
f 76/61/61 62/47/47 75/60/60
f 76/61/61 77/62/62 62/47/47
f 77/62/62 78/63/63 62/47/47
f 77/62/62 79/64/64 78/63/63
f 79/64/64 80/65/65 78/63/63
f 71/56/56 68/53/53 72/57/57
f 81/66/66 72/57/57 82/67/67
f 73/58/58 72/57/57 81/66/66
f 81/66/66 83/68/68 73/58/58
f 73/58/58 83/68/68 74/59/59
f 84/69/69 79/64/64 85/70/70
f 85/70/70 79/64/64 77/62/62
f 85/70/70 77/62/62 86/71/71
f 76/61/61 86/71/71 77/62/62
f 76/61/61 87/72/72 86/71/71
f 88/73/73 86/71/71 87/72/72
f 87/72/72 75/74/60 88/73/73
f 89/75/74 88/73/73 75/74/60
f 89/75/74 75/74/60 74/76/59
f 87/72/72 76/77/61 75/74/60
f 89/75/74 90/78/75 91/79/76
f 89/75/74 91/79/76 88/73/73
f 88/73/73 91/79/76 86/71/71
f 91/79/76 85/70/70 86/71/71
f 91/79/76 90/78/75 85/70/70
f 90/78/75 84/69/69 85/70/70
f 90/78/75 92/80/77 84/69/69
f 92/80/77 93/81/78 84/69/69
f 92/80/77 94/82/79 93/81/78
f 95/83/80 93/81/78 94/82/79
f 95/83/80 94/82/79 96/84/81
f 97/85/82 95/83/80 96/84/81
f 97/85/82 96/84/81 98/86/83
f 99/87/84 97/85/82 98/86/83
f 99/87/84 98/86/83 100/88/85
f 100/88/85 98/86/83 101/89/86
f 100/88/85 101/89/86 102/90/87
f 102/90/87 101/89/86 103/91/88
f 101/89/86 104/92/89 103/91/88
f 105/93/90 106/94/91 107/95/92
f 108/96/93 105/93/90 107/95/92
f 103/91/88 105/93/90 108/96/93
f 109/97/94 103/91/88 108/96/93
f 102/90/87 103/91/88 109/97/94
f 110/98/95 102/90/87 109/97/94
f 110/98/95 100/88/85 102/90/87
f 111/99/96 100/88/85 110/98/95
f 111/99/96 99/87/84 100/88/85
f 111/99/96 112/100/97 99/87/84
f 112/100/97 97/85/82 99/87/84
f 112/100/97 113/101/98 97/85/82
f 113/101/98 95/83/80 97/85/82
f 113/101/98 114/102/99 95/83/80
f 114/102/99 93/81/78 95/83/80
f 114/102/99 80/65/65 93/81/78
f 84/69/69 93/81/78 80/65/65
f 84/69/69 80/65/65 79/64/64
f 108/96/93 107/95/92 115/103/100
f 109/97/94 108/96/93 116/104/101
f 108/96/93 115/103/100 116/104/101
f 116/104/101 115/103/100 117/105/102
f 115/103/100 118/106/103 117/105/102
f 117/105/102 118/106/103 43/107/28
f 116/104/101 117/105/102 119/108/104
f 120/109/105 43/107/28 45/110/30
f 117/105/102 43/107/28 120/109/105
f 117/105/102 120/109/105 121/111/106
f 117/105/102 121/111/106 119/108/104
f 122/112/107 119/108/104 121/111/106
f 119/108/104 122/112/107 116/104/101
f 116/104/101 122/112/107 123/113/108
f 116/104/101 123/113/108 109/97/94
f 110/98/95 109/97/94 123/113/108
f 124/114/109 110/98/95 123/113/108
f 124/114/109 111/99/96 110/98/95
f 124/114/109 125/115/110 111/99/96
f 124/114/109 123/113/108 126/116/111
f 123/113/108 127/117/112 126/116/111
f 123/113/108 122/112/107 127/117/112
f 128/118/113 127/117/112 122/112/107
f 129/119/114 130/120/115 120/109/105
f 130/120/115 121/111/106 120/109/105
f 131/121/116 121/111/106 130/120/115
f 131/121/116 122/112/107 121/111/106
f 122/112/107 131/121/116 132/122/117
f 128/118/113 122/112/107 132/122/117
f 133/123/118 128/118/113 132/122/117
f 133/123/118 134/124/119 128/118/113
f 135/125/120 134/124/119 133/123/118
f 135/125/120 133/123/118 136/126/121
f 133/123/118 137/127/122 136/126/121
f 133/123/118 138/128/123 137/127/122
f 139/129/124 137/127/122 138/128/123
f 139/129/124 138/128/123 140/130/125
f 141/131/126 139/129/124 140/130/125
f 141/131/126 140/130/125 142/132/127
f 143/133/128 141/131/126 142/132/127
f 143/133/128 142/132/127 144/134/129
f 138/128/123 133/123/118 132/122/117
f 138/128/123 132/122/117 131/121/116
f 140/130/125 138/128/123 131/121/116
f 140/130/125 131/121/116 145/135/130
f 131/121/116 130/120/115 145/135/130
f 146/136/131 145/135/130 130/120/115
f 146/136/131 130/120/115 129/119/114
f 147/137/132 146/136/131 129/119/114
f 148/138/133 147/137/132 129/119/114
f 149/139/134 147/137/132 148/138/133
f 150/140/135 149/139/134 148/138/133
f 142/132/127 140/130/125 145/135/130
f 142/132/127 145/135/130 146/136/131
f 144/134/129 142/132/127 146/136/131
f 144/134/129 146/136/131 147/137/132
f 149/139/134 144/134/129 147/137/132
f 151/141/136 152/142/137 153/143/138
f 151/141/136 154/144/139 152/142/137
f 154/144/139 155/145/140 152/142/137
f 154/144/139 156/146/141 155/145/140
f 156/146/141 157/147/142 155/145/140
f 156/146/141 158/148/143 157/147/142
f 158/148/143 143/133/128 157/147/142
f 158/148/143 159/149/144 143/133/128
f 159/149/144 141/131/126 143/133/128
f 159/149/144 160/150/145 141/131/126
f 160/150/145 139/129/124 141/131/126
f 157/147/142 143/133/128 144/134/129
f 157/147/142 144/134/129 149/139/134
f 155/145/140 157/147/142 149/139/134
f 155/145/140 149/139/134 150/140/135
f 152/142/137 155/145/140 150/140/135
f 152/142/137 150/140/135 161/151/146
f 153/143/138 152/142/137 161/151/146
f 153/143/138 161/151/146 162/152/147
f 162/152/147 161/151/146 163/153/148
f 162/152/147 163/153/148 164/154/149
f 163/153/148 165/155/150 164/154/149
f 164/154/149 165/155/150 166/156/151
f 165/155/150 167/157/152 166/156/151
f 166/156/151 167/157/152 168/158/153
f 167/157/152 169/159/154 168/158/153
f 168/158/153 169/159/154 170/160/155
f 169/159/154 171/161/156 170/160/155
f 169/159/154 172/162/157 171/161/156
f 164/154/149 166/156/151 173/163/158
f 174/164/159 175/165/160 173/163/158
f 174/164/159 173/163/158 166/156/151
f 166/156/151 168/158/153 174/164/159
f 168/158/153 176/166/161 174/164/159
f 168/158/153 170/160/155 176/166/161
f 172/162/157 46/167/31 171/161/156
f 172/162/157 45/110/30 46/167/31
f 177/168/162 45/110/30 172/162/157
f 177/168/162 120/109/105 45/110/30
f 129/119/114 120/109/105 177/168/162
f 178/169/163 129/119/114 177/168/162
f 148/138/133 129/119/114 178/169/163
f 179/170/164 148/138/133 178/169/163
f 150/140/135 148/138/133 179/170/164
f 161/151/146 150/140/135 179/170/164
f 161/151/146 179/170/164 163/153/148
f 163/153/148 179/170/164 180/171/165
f 163/153/148 180/171/165 165/155/150
f 165/155/150 180/171/165 167/157/152
f 180/171/165 181/172/166 167/157/152
f 167/157/152 181/172/166 169/159/154
f 181/172/166 172/162/157 169/159/154
f 181/172/166 177/168/162 172/162/157
f 178/169/163 177/168/162 181/172/166
f 180/171/165 178/169/163 181/172/166
f 179/170/164 178/169/163 180/171/165
f 182/173/167 26/174/11 35/175/20
f 182/173/167 24/176/9 26/174/11
f 82/67/67 183/177/168 81/66/66
f 81/66/66 183/177/168 184/178/169
f 184/178/169 83/68/68 81/66/66
f 74/59/59 83/68/68 184/178/169
f 82/67/67 72/57/57 68/53/53
f 185/179/170 186/180/171 187/181/172
f 186/180/171 188/182/173 187/181/172
f 186/180/171 189/183/174 188/182/173
f 189/183/174 190/184/175 188/182/173
f 189/183/174 191/185/176 190/184/175
f 191/185/176 192/186/177 190/184/175
f 193/187/178 192/186/177 191/185/176
f 195/188/179 185/179/170 5/189/180
f 4/190/181 5/189/180 185/179/170
f 187/181/172 4/190/181 185/179/170
f 2/191/182 4/190/181 187/181/172
f 188/182/173 2/191/182 187/181/172
f 2/191/182 188/182/173 1/192/183
f 196/193/184 193/187/178 197/194/185
f 193/187/178 196/193/184 198/195/186
f 193/187/178 198/195/186 192/186/177
f 198/195/186 199/196/187 192/186/177
f 190/184/175 192/186/177 199/196/187
f 190/184/175 199/196/187 200/197/188
f 200/197/188 188/182/173 190/184/175
f 200/197/188 201/198/189 188/182/173
f 188/182/173 201/198/189 1/192/183
f 3/199/190 1/192/183 201/198/189
f 3/199/190 201/198/189 202/200/191
f 3/199/190 202/200/191 9/201/192
f 202/200/191 203/202/193 9/201/192
f 10/203/194 9/201/192 203/202/193
f 8/204/195 10/203/194 203/202/193
f 8/204/195 203/202/193 204/205/196
f 8/204/195 204/205/196 205/206/197
f 205/206/197 204/205/196 206/207/198
f 200/197/188 202/200/191 201/198/189
f 206/207/198 207/208/199 208/209/200
f 209/210/201 207/208/199 206/207/198
f 209/210/201 198/195/186 207/208/199
f 210/211/202 198/195/186 209/210/201
f 210/211/202 199/196/187 198/195/186
f 210/211/202 200/197/188 199/196/187
f 211/212/203 200/197/188 210/211/202
f 200/197/188 211/212/203 202/200/191
f 203/202/193 202/200/191 211/212/203
f 211/212/203 204/205/196 203/202/193
f 210/211/202 204/205/196 211/212/203
f 210/211/202 209/210/201 204/205/196
f 209/210/201 206/207/198 204/205/196
f 212/213/204 205/206/197 206/207/198
f 206/207/198 208/209/200 212/213/204
f 212/213/204 208/209/200 213/214/205
f 214/215/206 213/214/205 208/209/200
f 214/215/206 215/216/207 213/214/205
f 215/216/207 214/215/206 216/217/208
f 215/216/207 216/217/208 217/218/209
f 217/218/209 216/217/208 218/219/210
f 217/218/209 218/219/210 219/220/211
f 218/219/210 220/221/212 219/220/211
f 216/217/208 214/215/206 221/222/213
f 208/209/200 207/208/199 214/215/206
f 222/223/214 214/215/206 207/208/199
f 222/223/214 221/222/213 214/215/206
f 222/223/214 223/224/215 221/222/213
f 223/224/215 224/225/216 221/222/213
f 221/222/213 224/225/216 216/217/208
f 216/217/208 224/225/216 218/219/210
f 223/224/215 196/193/184 225/226/217
f 223/224/215 222/223/214 196/193/184
f 207/208/199 196/193/184 222/223/214
f 207/208/199 198/195/186 196/193/184
f 8/204/195 205/206/197 7/227/218
f 6/228/219 7/227/218 205/206/197
f 6/228/219 205/206/197 212/213/204
f 194/229/220 212/213/204 213/214/205
f 226/230/221 227/231/222 228/232/223
f 226/230/221 229/233/224 227/231/222
f 229/233/224 230/234/225 227/231/222
f 231/235/226 227/231/222 230/234/225
f 231/235/226 232/236/227 227/231/222
f 233/237/228 232/236/227 231/235/226
f 233/237/228 234/238/229 232/236/227
f 234/238/229 233/237/228 220/221/212
f 234/238/229 220/221/212 235/239/230
f 218/219/210 235/239/230 220/221/212
f 235/239/230 218/219/210 236/240/231
f 224/225/216 236/240/231 218/219/210
f 237/241/232 236/240/231 224/225/216
f 223/224/215 237/241/232 224/225/216
f 223/224/215 238/242/233 237/241/232
f 223/224/215 225/226/217 238/242/233
f 197/194/185 238/242/233 225/226/217
f 196/193/184 197/194/185 225/226/217
f 232/236/227 228/232/223 227/231/222
f 229/233/224 239/243/234 230/234/225
f 235/239/230 236/240/231 240/244/235
f 240/244/235 236/240/231 241/245/236
f 242/246/237 241/245/236 243/247/238
f 243/247/238 244/248/239 242/246/237
f 242/246/237 244/248/239 245/249/240
f 242/246/237 245/249/240 246/250/241
f 242/246/237 246/250/241 241/245/236
f 247/251/242 241/245/236 246/250/241
f 240/244/235 241/245/236 247/251/242
f 240/244/235 247/251/242 248/252/243
f 235/239/230 240/244/235 248/252/243
f 235/239/230 248/252/243 234/238/229
f 248/252/243 232/236/227 234/238/229
f 248/252/243 249/253/244 232/236/227
f 232/236/227 249/253/244 228/232/223
f 249/253/244 250/254/245 228/232/223
f 249/253/244 251/255/246 250/254/245
f 247/251/242 251/255/246 249/253/244
f 247/251/242 249/253/244 248/252/243
f 252/256/247 253/257/248 254/258/249
f 252/256/247 254/258/249 255/259/250
f 252/256/247 255/259/250 243/247/238
f 243/247/238 255/259/250 256/260/251
f 243/247/238 256/260/251 244/248/239
f 257/261/252 244/248/239 256/260/251
f 257/261/252 245/249/240 244/248/239
f 258/262/253 245/249/240 257/261/252
f 246/250/241 245/249/240 258/262/253
f 246/250/241 258/262/253 259/263/254
f 246/250/241 259/263/254 247/251/242
f 259/263/254 260/264/255 247/251/242
f 247/251/242 260/264/255 251/255/246
f 251/255/246 260/264/255 261/265/256
f 251/255/246 261/265/256 250/254/245
f 262/266/257 250/254/245 261/265/256
f 262/266/257 228/232/223 250/254/245
f 262/266/257 226/230/221 228/232/223
f 259/263/254 261/265/256 260/264/255
f 258/262/253 257/261/252 263/267/258
f 256/260/251 263/267/258 257/261/252
f 256/260/251 264/268/259 263/267/258
f 255/259/250 264/268/259 256/260/251
f 262/266/257 261/265/256 265/269/260
f 266/270/261 265/269/260 261/265/256
f 259/263/254 266/270/261 261/265/256
f 258/262/253 266/270/261 259/263/254
f 258/262/253 267/271/262 266/270/261
f 258/262/253 263/267/258 267/271/262
f 268/272/263 267/271/262 263/267/258
f 268/272/263 263/267/258 269/273/264
f 264/268/259 269/273/264 263/267/258
f 269/273/264 264/268/259 270/274/265
f 255/259/250 270/274/265 264/268/259
f 254/258/249 270/274/265 255/259/250
f 254/258/249 271/275/266 270/274/265
f 254/258/249 272/276/267 271/275/266
f 272/276/267 273/277/268 271/275/266
f 272/276/267 274/278/269 273/277/268
f 274/278/269 230/279/225 273/277/268
f 274/278/269 231/280/226 230/279/225
f 265/269/260 266/270/261 267/271/262
f 268/272/263 265/269/260 267/271/262
f 239/281/234 273/277/268 230/279/225
f 239/281/234 275/282/270 273/277/268
f 275/282/270 271/275/266 273/277/268
f 275/282/270 276/283/271 271/275/266
f 276/283/271 270/274/265 271/275/266
f 276/283/271 269/273/264 270/274/265
f 213/284/205 195/188/179 194/285/220
f 213/284/205 277/286/272 195/188/179
f 215/287/207 277/286/272 213/284/205
f 215/287/207 278/288/273 277/286/272
f 278/288/273 215/287/207 217/289/209
f 278/288/273 217/289/209 279/290/274
f 219/291/211 279/290/274 217/289/209
f 219/291/211 280/292/275 279/290/274
f 280/292/275 219/291/211 220/293/212
f 280/292/275 220/293/212 281/294/276
f 233/295/228 281/294/276 220/293/212
f 233/295/228 282/296/277 281/294/276
f 282/296/277 233/295/228 231/280/226
f 282/296/277 231/280/226 274/278/269
f 283/297/278 282/296/277 274/278/269
f 283/297/278 274/278/269 272/276/267
f 253/257/248 283/297/278 272/276/267
f 253/257/248 272/276/267 254/258/249
f 284/298/279 278/288/273 279/290/274
f 280/292/275 281/294/276 285/299/280
f 282/296/277 285/299/280 281/294/276
f 282/296/277 283/297/278 285/299/280
f 286/300/281 287/301/282 288/302/283
f 286/300/281 288/302/283 289/303/284
f 290/304/285 289/303/284 288/302/283
f 290/304/285 291/305/286 289/303/284
f 290/304/285 292/306/287 291/305/286
f 291/305/286 292/306/287 284/298/279
f 291/305/286 284/298/279 293/307/288
f 284/298/279 279/290/274 293/307/288
f 280/292/275 293/307/288 279/290/274
f 280/292/275 294/308/289 293/307/288
f 280/292/275 285/299/280 294/308/289
f 294/308/289 285/299/280 295/309/290
f 295/309/290 285/299/280 283/297/278
f 295/309/290 283/297/278 253/257/248
f 252/256/247 295/309/290 253/257/248
f 252/256/247 296/310/291 295/309/290
f 297/311/292 296/310/291 252/256/247
f 287/301/282 296/310/291 297/311/292
f 287/301/282 286/300/281 296/310/291
f 286/300/281 295/309/290 296/310/291
f 286/300/281 298/312/293 295/309/290
f 294/308/289 295/309/290 298/312/293
f 294/308/289 298/312/293 291/305/286
f 294/308/289 291/305/286 293/307/288
f 298/312/293 289/303/284 291/305/286
f 298/312/293 286/300/281 289/303/284
f 297/311/292 252/256/247 299/313/294
f 243/247/238 299/313/294 252/256/247
f 299/313/294 243/247/238 300/314/295
f 297/311/292 299/313/294 300/314/295
f 297/311/292 300/314/295 301/315/296
f 297/311/292 301/315/296 287/301/282
f 287/301/282 301/315/296 302/316/297
f 288/302/283 287/301/282 302/316/297
f 303/317/298 288/302/283 302/316/297
f 303/317/298 290/304/285 288/302/283
f 303/317/298 304/318/299 290/304/285
f 292/306/287 290/304/285 304/318/299
f 292/306/287 304/318/299 305/319/300
f 284/298/279 292/306/287 305/319/300
f 284/298/279 305/319/300 306/320/301
f 278/288/273 284/298/279 306/320/301
f 278/288/273 306/320/301 277/286/272
f 277/286/272 185/179/170 195/188/179
f 306/320/301 185/179/170 277/286/272
f 306/320/301 186/180/171 185/179/170
f 305/319/300 186/180/171 306/320/301
f 189/183/174 186/180/171 305/319/300
f 189/183/174 305/319/300 304/318/299
f 189/183/174 304/318/299 191/185/176
f 303/317/298 191/185/176 304/318/299
f 193/187/178 191/185/176 303/317/298
f 193/187/178 303/317/298 302/316/297
f 197/194/185 193/187/178 302/316/297
f 197/194/185 302/316/297 301/315/296
f 197/194/185 301/315/296 238/242/233
f 301/315/296 237/241/232 238/242/233
f 301/315/296 236/240/231 237/241/232
f 301/315/296 300/314/295 236/240/231
f 300/314/295 241/245/236 236/240/231
f 300/314/295 243/247/238 241/245/236
f 162/152/147 151/321/136 153/143/138
f 162/152/147 175/322/160 151/321/136
f 173/323/158 175/322/160 162/152/147
f 173/323/158 162/152/147 164/154/149
f 118/324/103 41/26/26 43/28/28
f 118/324/103 307/325/302 41/26/26
f 307/325/302 39/24/24 41/26/26
f 307/325/302 308/326/303 39/24/24
f 308/326/303 38/23/23 39/24/24
f 308/326/303 309/327/304 38/23/23
f 37/22/22 38/23/23 309/327/304
f 37/22/22 309/327/304 310/328/305
f 36/21/21 37/22/22 310/328/305
f 36/21/21 310/328/305 311/329/306
f 34/19/19 36/21/21 311/329/306
f 34/19/19 311/329/306 312/330/307
f 35/20/20 34/19/19 312/330/307
f 35/20/20 312/330/307 182/331/167
f 135/332/120 313/333/308 314/334/309
f 135/332/120 314/334/309 315/335/310
f 316/336/311 135/332/120 315/335/310
f 316/336/311 134/337/119 135/332/120
f 128/338/113 134/337/119 316/336/311
f 128/338/113 316/336/311 317/339/312
f 317/339/312 318/340/313 128/338/113
f 127/341/112 128/338/113 318/340/313
f 318/340/313 319/342/314 127/341/112
f 126/343/111 127/341/112 319/342/314
f 319/342/314 320/344/315 126/343/111
f 124/345/109 126/343/111 320/344/315
f 47/346/32 321/347/316 322/348/317
f 313/349/308 135/125/120 136/126/121
f 313/349/308 136/126/121 323/350/318
f 323/350/318 136/126/121 137/127/122
f 321/347/316 323/350/318 137/127/122
f 139/129/124 321/347/316 137/127/122
f 139/129/124 322/348/317 321/347/316
f 160/150/145 322/348/317 139/129/124
f 160/150/145 47/346/32 322/348/317
f 160/150/145 46/351/31 47/346/32
f 171/352/156 46/351/31 160/150/145
f 171/352/156 160/150/145 159/149/144
f 170/353/155 171/352/156 159/149/144
f 170/353/155 159/149/144 158/148/143
f 176/354/161 170/353/155 158/148/143
f 176/354/161 158/148/143 156/146/141
f 174/355/159 176/354/161 156/146/141
f 174/355/159 156/146/141 154/144/139
f 175/356/160 174/355/159 154/144/139
f 175/356/160 154/144/139 151/141/136
f 183/357/168 89/75/74 184/358/169
f 89/75/74 74/76/59 184/358/169
f 94/82/79 92/80/77 324/359/319
f 324/359/319 92/80/77 90/78/75
f 324/359/319 90/78/75 325/360/320
f 89/75/74 325/360/320 90/78/75
f 326/361/321 325/360/320 89/75/74
f 183/357/168 326/361/321 89/75/74
f 82/362/67 326/361/321 183/357/168
f 82/362/67 327/363/322 326/361/321
f 328/364/323 327/363/322 82/362/67
f 328/364/323 329/365/324 327/363/322
f 330/366/325 329/365/324 328/364/323
f 330/366/325 331/367/326 329/365/324
f 331/367/326 332/368/327 329/365/324
f 331/367/326 333/369/328 332/368/327
f 333/369/328 334/370/329 332/368/327
f 333/369/328 335/371/330 334/370/329
f 336/372/331 334/370/329 335/371/330
f 336/372/331 335/371/330 337/373/332
f 327/363/322 338/374/333 326/361/321
f 326/361/321 338/374/333 325/360/320
f 338/374/333 324/359/319 325/360/320
f 339/375/334 340/376/335 336/372/331
f 340/376/335 334/370/329 336/372/331
f 70/377/55 330/366/325 341/378/336
f 330/366/325 328/364/323 341/378/336
f 341/378/336 328/364/323 82/362/67
f 341/378/336 82/362/67 68/379/53
f 68/379/53 70/377/55 341/378/336
f 337/373/332 104/92/89 336/372/331
f 339/375/334 336/372/331 104/92/89
f 101/89/86 339/375/334 104/92/89
f 98/86/83 339/375/334 101/89/86
f 98/86/83 342/380/337 339/375/334
f 96/84/81 342/380/337 98/86/83
f 343/381/338 342/380/337 96/84/81
f 343/381/338 96/84/81 94/82/79
f 94/82/79 324/359/319 343/381/338
f 343/381/338 324/359/319 344/382/339
f 338/374/333 344/382/339 324/359/319
f 345/383/340 344/382/339 338/374/333
f 327/363/322 345/383/340 338/374/333
f 329/365/324 345/383/340 327/363/322
f 329/365/324 332/368/327 345/383/340
f 334/370/329 345/383/340 332/368/327
f 334/370/329 346/384/341 345/383/340
f 340/376/335 346/384/341 334/370/329
f 347/385/342 346/384/341 340/376/335
f 339/375/334 347/385/342 340/376/335
f 339/375/334 342/380/337 347/385/342
f 343/381/338 347/385/342 342/380/337
f 343/381/338 344/382/339 347/385/342
f 347/385/342 344/382/339 346/384/341
f 345/383/340 346/384/341 344/382/339
f 103/91/88 104/92/89 105/93/90
f 104/92/89 348/386/343 105/93/90
f 104/92/89 337/373/332 348/386/343
f 33/387/18 348/386/343 337/373/332
f 349/388/344 348/386/343 33/387/18
f 349/388/344 33/387/18 31/389/16
f 349/388/344 31/389/16 350/390/345
f 351/391/346 350/390/345 31/389/16
f 351/391/346 31/389/16 29/392/14
f 351/391/346 29/392/14 352/393/347
f 353/394/348 352/393/347 29/392/14
f 353/394/348 29/392/14 27/395/12
f 353/394/348 27/395/12 24/176/9
f 182/173/167 353/394/348 24/176/9
f 182/173/167 354/396/349 353/394/348
f 354/396/349 352/393/347 353/394/348
f 354/396/349 355/397/350 352/393/347
f 355/397/350 351/391/346 352/393/347
f 355/397/350 356/398/351 351/391/346
f 356/398/351 350/390/345 351/391/346
f 356/398/351 357/399/352 350/390/345
f 357/399/352 349/388/344 350/390/345
f 357/399/352 358/400/353 349/388/344
f 358/400/353 348/386/343 349/388/344
f 358/400/353 106/94/91 348/386/343
f 105/93/90 348/386/343 106/94/91
f 359/401/354 313/402/308 323/403/318
f 360/404/355 321/405/316 47/32/32
f 360/404/355 323/403/318 321/405/316
f 47/32/32 48/33/33 360/404/355
f 48/33/33 51/36/36 360/404/355
f 323/403/318 360/404/355 51/36/36
f 323/403/318 51/36/36 361/406/356
f 359/401/354 323/403/318 361/406/356
f 125/115/110 359/401/354 361/406/356
f 125/115/110 361/406/356 111/99/96
f 361/406/356 112/100/97 111/99/96
f 361/406/356 51/36/36 112/100/97
f 51/36/36 113/101/98 112/100/97
f 51/36/36 50/35/35 113/101/98
f 50/35/35 114/102/99 113/101/98
f 50/35/35 60/45/45 114/102/99
f 60/45/45 80/65/65 114/102/99
f 60/45/45 59/44/44 80/65/65
f 78/63/63 80/65/65 59/44/44
f 78/63/63 59/44/44 61/46/46
f 62/47/47 78/63/63 61/46/46
f 115/103/100 307/407/302 118/106/103
f 308/408/303 307/407/302 115/103/100
f 308/408/303 115/103/100 107/95/92
f 309/409/304 308/408/303 107/95/92
f 309/409/304 107/95/92 106/94/91
f 310/410/305 309/409/304 106/94/91
f 310/410/305 106/94/91 358/400/353
f 358/400/353 357/399/352 310/410/305
f 311/411/306 310/410/305 357/399/352
f 311/411/306 357/399/352 356/398/351
f 356/398/351 355/397/350 311/411/306
f 312/412/307 311/411/306 355/397/350
f 312/412/307 355/397/350 354/396/349
f 182/173/167 312/412/307 354/396/349
f 320/344/315 362/413/357 124/345/109
f 125/414/110 124/345/109 362/413/357
f 359/415/354 125/414/110 362/413/357
f 359/415/354 362/413/357 363/416/358
f 363/416/358 314/417/309 359/415/354
f 313/418/308 359/415/354 314/417/309
f 364/419/359 365/420/360 366/421/361
f 367/422/362 368/423/363 366/421/361
f 364/419/359 366/421/361 368/423/363
f 369/424/364 364/419/359 368/423/363
f 370/425/365 371/426/366 372/427/367
f 371/426/366 367/422/362 372/427/367
f 371/426/366 373/428/368 367/422/362
f 367/422/362 373/428/368 368/423/363
f 373/428/368 374/429/369 368/423/363
f 369/424/364 368/423/363 374/429/369
f 375/430/370 369/424/364 374/429/369
f 375/430/370 374/429/369 376/431/371
f 377/432/372 376/431/371 374/429/369
f 373/428/368 377/432/372 374/429/369
f 371/426/366 377/432/372 373/428/368
f 378/433/373 375/430/370 379/434/374
f 376/431/371 379/434/374 375/430/370
f 380/435/375 379/434/374 376/431/371
f 377/432/372 380/435/375 376/431/371
f 381/436/376 380/435/375 377/432/372
f 371/426/366 381/436/376 377/432/372
f 382/437/377 381/436/376 371/426/366
f 370/425/365 382/437/377 371/426/366
f 382/437/377 370/425/365 383/438/378
f 382/437/377 383/438/378 384/439/379
f 385/440/380 384/439/379 383/438/378
f 385/440/380 386/441/381 384/439/379
f 386/441/381 385/440/380 387/442/382
f 386/441/381 387/442/382 388/443/383
f 389/444/384 388/443/383 387/442/382
f 389/444/384 390/445/385 388/443/383
f 391/446/386 390/445/385 389/444/384
f 391/446/386 392/447/387 390/445/385
f 381/436/376 393/448/388 380/435/375
f 393/448/388 379/434/374 380/435/375
f 393/448/388 394/449/389 379/434/374
f 395/450/390 379/434/374 394/449/389
f 379/434/374 395/450/390 378/433/373
f 396/451/391 378/433/373 395/450/390
f 395/450/390 397/452/392 396/451/391
f 395/450/390 398/453/393 397/452/392
f 398/453/393 399/454/394 397/452/392
f 400/455/395 397/452/392 399/454/394
f 400/455/395 396/451/391 397/452/392
f 400/455/395 401/456/396 396/451/391
f 401/456/396 378/433/373 396/451/391
f 401/456/396 402/457/397 378/433/373
f 403/458/398 404/459/399 405/460/400
f 403/458/398 390/445/385 404/459/399
f 390/445/385 403/458/398 406/461/401
f 390/445/385 406/461/401 388/443/383
f 407/462/402 388/443/383 406/461/401
f 407/462/402 386/441/381 388/443/383
f 386/441/381 407/462/402 408/463/403
f 386/441/381 408/463/403 384/439/379
f 408/463/403 382/437/377 384/439/379
f 408/463/403 409/464/404 382/437/377
f 382/437/377 409/464/404 381/436/376
f 381/436/376 409/464/404 410/465/405
f 381/436/376 410/465/405 393/448/388
f 410/465/405 411/466/406 393/448/388
f 394/449/389 393/448/388 411/466/406
f 411/466/406 412/467/407 394/449/389
f 395/450/390 394/449/389 412/467/407
f 412/467/407 398/453/393 395/450/390
f 410/465/405 409/464/404 408/463/403
f 403/458/398 413/468/408 406/461/401
f 407/462/402 406/461/401 413/468/408
f 410/465/405 408/463/403 414/469/409
f 407/462/402 414/469/409 408/463/403
f 407/462/402 415/470/410 414/469/409
f 407/462/402 413/468/408 415/470/410
f 416/471/411 415/470/410 413/468/408
f 415/470/410 416/471/411 417/472/412
f 416/471/411 418/473/413 417/472/412
f 415/470/410 417/472/412 414/469/409
f 385/474/380 419/475/414 387/476/382
f 420/477/415 387/476/382 419/475/414
f 421/478/416 420/477/415 419/475/414
f 420/477/415 421/478/416 422/479/417
f 422/479/417 421/478/416 423/480/418
f 421/478/416 424/481/419 423/480/418
f 425/482/420 423/480/418 424/481/419
f 426/483/421 425/482/420 424/481/419
f 426/483/421 427/484/422 425/482/420
f 427/484/422 426/483/421 428/485/423
f 427/484/422 428/485/423 429/486/424
f 429/486/424 428/485/423 398/453/393
f 398/453/393 412/467/407 429/486/424
f 429/486/424 412/467/407 418/473/413
f 412/467/407 411/466/406 418/473/413
f 418/473/413 411/466/406 417/472/412
f 417/472/412 411/466/406 410/465/405
f 417/472/412 410/465/405 414/469/409
f 425/482/420 427/484/422 429/486/424
f 430/487/425 426/483/421 424/481/419
f 430/487/425 431/488/426 426/483/421
f 432/489/427 431/488/426 430/487/425
f 426/483/421 431/488/426 432/489/427
f 426/483/421 432/489/427 428/485/423
f 428/485/423 432/489/427 399/454/394
f 399/454/394 398/453/393 428/485/423
f 432/489/427 430/487/425 433/490/428
f 424/481/419 421/478/416 430/487/425
f 430/487/425 421/478/416 419/475/414
f 430/487/425 419/475/414 433/490/428
f 385/474/380 433/490/428 419/475/414
f 383/491/378 433/490/428 385/474/380
f 383/491/378 432/489/427 433/490/428
f 432/489/427 383/491/378 434/492/429
f 434/492/429 399/454/394 432/489/427
f 435/493/430 399/454/394 434/492/429
f 400/455/395 399/454/394 435/493/430
f 400/455/395 435/493/430 436/494/431
f 436/494/431 401/456/396 400/455/395
f 401/456/396 436/494/431 437/495/432
f 401/456/396 437/495/432 402/457/397
f 402/457/397 437/495/432 438/496/433
f 438/496/433 378/433/373 402/457/397
f 438/496/433 439/497/434 378/433/373
f 439/497/434 375/430/370 378/433/373
f 370/498/365 434/492/429 383/491/378
f 434/492/429 370/498/365 440/499/435
f 435/493/430 434/492/429 440/499/435
f 435/493/430 440/499/435 441/500/436
f 441/500/436 436/494/431 435/493/430
f 436/494/431 441/500/436 442/501/437
f 436/494/431 442/501/437 437/495/432
f 437/495/432 442/501/437 443/502/438
f 443/502/438 438/496/433 437/495/432
f 372/503/367 440/499/435 370/498/365
f 372/503/367 444/504/439 440/499/435
f 444/504/439 441/500/436 440/499/435
f 441/500/436 444/504/439 445/505/440
f 441/500/436 445/505/440 442/501/437
f 446/506/441 442/501/437 445/505/440
f 446/506/441 447/507/442 442/501/437
f 447/507/442 443/502/438 442/501/437
f 372/503/367 367/508/362 444/504/439
f 444/504/439 367/508/362 366/509/361
f 444/504/439 366/509/361 445/505/440
f 445/505/440 366/509/361 446/506/441
f 365/510/360 446/506/441 366/509/361
f 314/417/309 446/506/441 365/510/360
f 314/417/309 363/416/358 446/506/441
f 362/413/357 446/506/441 363/416/358
f 362/413/357 447/507/442 446/506/441
f 320/344/315 447/507/442 362/413/357
f 320/344/315 443/502/438 447/507/442
f 320/344/315 438/496/433 443/502/438
f 320/344/315 319/342/314 438/496/433
f 319/342/314 439/497/434 438/496/433
f 319/342/314 318/340/313 439/497/434
f 318/340/313 375/430/370 439/497/434
f 318/340/313 317/339/312 375/430/370
f 316/336/311 375/430/370 317/339/312
f 316/336/311 369/424/364 375/430/370
f 316/336/311 364/419/359 369/424/364
f 316/336/311 315/335/310 364/419/359
f 315/335/310 365/420/360 364/419/359
f 315/335/310 314/334/309 365/420/360
f 448/164/443 449/166/444 450/158/445
f 449/166/444 451/159/446 450/158/445
f 449/166/444 452/160/447 451/159/446
f 452/160/447 453/162/448 451/159/446
f 452/160/447 454/161/449 453/162/448
f 455/156/450 456/163/451 457/165/452
f 455/156/450 457/165/452 448/164/443
f 448/164/443 458/157/453 455/156/450
f 448/164/443 450/158/445 458/157/453
f 450/158/445 459/172/454 458/157/453
f 450/158/445 451/159/446 459/172/454
f 451/159/446 460/168/455 459/172/454
f 451/159/446 453/162/448 460/168/455
f 453/162/448 461/110/456 460/168/455
f 454/161/449 461/110/456 453/162/448
f 454/161/449 462/167/457 461/110/456
f 461/110/456 463/109/458 460/168/455
f 459/172/454 464/119/459 465/169/460
f 458/157/453 459/172/454 465/169/460
f 458/157/453 465/169/460 466/171/461
f 455/156/450 458/157/453 466/171/461
f 455/156/450 466/171/461 467/155/462
f 456/163/451 455/156/450 467/155/462
f 456/163/451 467/155/462 468/154/463
f 468/154/463 467/155/462 469/153/464
f 468/154/463 469/153/464 470/151/465
f 469/153/464 471/140/466 470/151/465
f 470/151/465 471/140/466 472/145/467
f 471/140/466 473/147/468 472/145/467
f 472/145/467 473/147/468 474/148/469
f 473/147/468 475/149/470 474/148/469
f 473/147/468 476/133/471 475/149/470
f 476/133/471 477/150/472 475/149/470
f 476/133/471 478/131/473 477/150/472
f 478/131/473 479/348/474 477/150/472
f 468/154/463 470/151/465 480/152/475
f 480/152/475 470/151/465 481/142/476
f 470/151/465 472/145/467 481/142/476
f 481/142/476 472/145/467 482/146/477
f 472/145/467 474/148/469 482/146/477
f 480/152/475 481/142/476 483/143/478
f 483/143/478 481/142/476 484/144/479
f 481/142/476 482/146/477 484/144/479
f 483/143/478 484/144/479 485/141/480
f 478/131/473 486/129/481 479/348/474
f 487/127/482 479/348/474 486/129/481
f 488/130/483 487/127/482 486/129/481
f 488/130/483 489/128/484 487/127/482
f 490/135/485 489/128/484 488/130/483
f 491/136/486 490/135/485 488/130/483
f 464/119/459 490/135/485 491/136/486
f 464/119/459 491/136/486 492/137/487
f 465/169/460 464/119/459 492/137/487
f 465/169/460 492/137/487 493/138/488
f 466/171/461 465/169/460 493/138/488
f 466/171/461 493/138/488 494/170/489
f 467/155/462 466/171/461 494/170/489
f 467/155/462 494/170/489 469/153/464
f 469/153/464 494/170/489 471/140/466
f 494/170/489 495/139/490 471/140/466
f 471/140/466 495/139/490 473/147/468
f 495/139/490 476/133/471 473/147/468
f 464/119/459 496/120/491 490/135/485
f 497/126/492 489/128/484 498/123/493
f 497/126/492 487/127/482 489/128/484
f 479/348/474 499/346/494 462/351/457
f 479/348/474 500/347/495 499/346/494
f 487/127/482 500/347/495 479/348/474
f 487/127/482 501/350/496 500/347/495
f 487/127/482 497/126/492 501/350/496
f 501/350/496 497/126/492 502/125/497
f 497/126/492 503/124/498 502/125/497
f 497/126/492 498/123/493 503/124/498
f 504/122/499 503/124/498 498/123/493
f 504/122/499 498/123/493 489/128/484
f 505/121/500 504/122/499 489/128/484
f 490/135/485 505/121/500 489/128/484
f 490/135/485 506/111/501 505/121/500
f 490/135/485 496/120/491 506/111/501
f 463/109/458 506/111/501 496/120/491
f 460/168/455 463/109/458 496/120/491
f 460/168/455 496/120/491 464/119/459
f 459/172/454 460/168/455 464/119/459
f 501/350/496 502/125/497 507/349/502
f 508/108/503 463/109/458 509/105/504
f 508/108/503 506/111/501 463/109/458
f 506/111/501 508/108/503 510/112/505
f 506/111/501 510/112/505 505/121/500
f 504/122/499 505/121/500 510/112/505
f 511/113/506 510/112/505 512/104/507
f 508/108/503 512/104/507 510/112/505
f 508/108/503 513/103/508 512/104/507
f 508/108/503 509/105/504 513/103/508
f 509/105/504 514/407/509 513/103/508
f 509/105/504 515/106/510 514/407/509
f 463/109/458 515/106/510 509/105/504
f 463/109/458 516/107/511 515/106/510
f 461/110/456 516/107/511 463/109/458
f 517/94/512 518/408/513 519/409/514
f 517/94/512 520/95/515 518/408/513
f 520/95/515 514/407/509 518/408/513
f 520/95/515 513/103/508 514/407/509
f 512/104/507 513/103/508 521/96/516
f 513/103/508 522/93/517 521/96/516
f 513/103/508 520/95/515 522/93/517
f 520/95/515 523/386/518 522/93/517
f 520/95/515 517/94/512 523/386/518
f 524/388/519 523/386/518 517/94/512
f 524/388/519 517/94/512 525/400/520
f 525/400/520 517/94/512 519/409/514
f 525/400/520 519/409/514 526/410/521
f 526/410/521 527/399/522 525/400/520
f 528/398/523 527/399/522 526/410/521
f 528/398/523 526/410/521 529/411/524
f 529/411/524 530/397/525 528/398/523
f 531/396/526 530/397/525 529/411/524
f 531/396/526 529/411/524 532/412/527
f 531/396/526 532/412/527 533/173/528
f 511/113/506 534/90/529 535/98/530
f 511/113/506 536/97/531 534/90/529
f 536/97/531 511/113/506 512/104/507
f 512/104/507 537/91/532 536/97/531
f 512/104/507 521/96/516 537/91/532
f 521/96/516 538/92/533 537/91/532
f 521/96/516 522/93/517 538/92/533
f 522/93/517 539/373/534 538/92/533
f 522/93/517 523/386/518 539/373/534
f 539/373/534 523/386/518 540/387/535
f 541/389/536 540/387/535 523/386/518
f 541/389/536 523/386/518 524/388/519
f 542/390/537 541/389/536 524/388/519
f 542/390/537 524/388/519 525/400/520
f 542/390/537 525/400/520 527/399/522
f 543/391/538 542/390/537 527/399/522
f 543/391/538 527/399/522 528/398/523
f 544/393/539 543/391/538 528/398/523
f 534/90/529 545/86/540 546/88/541
f 534/90/529 547/89/542 545/86/540
f 536/97/531 547/89/542 534/90/529
f 536/97/531 537/91/532 547/89/542
f 537/91/532 548/375/543 547/89/542
f 537/91/532 538/92/533 548/375/543
f 538/92/533 549/376/544 548/375/543
f 538/92/533 550/372/545 549/376/544
f 550/372/545 538/92/533 539/373/534
f 539/373/534 551/370/546 550/372/545
f 539/373/534 552/371/547 551/370/546
f 553/368/548 551/370/546 552/371/547
f 553/368/548 552/371/547 554/369/549
f 555/365/550 553/368/548 554/369/549
f 555/365/550 554/369/549 556/367/551
f 557/364/552 555/365/550 556/367/551
f 557/364/552 556/367/551 558/366/553
f 559/378/554 557/364/552 558/366/553
f 553/368/548 560/384/555 551/370/546
f 559/378/554 558/366/553 561/377/556
f 559/378/554 561/377/556 562/379/557
f 562/379/557 563/362/558 559/378/554
f 563/362/558 557/364/552 559/378/554
f 563/362/558 555/365/550 557/364/552
f 563/362/558 564/363/559 555/365/550
f 564/363/559 553/368/548 555/365/550
f 564/363/559 565/383/560 553/368/548
f 553/368/548 565/383/560 560/384/555
f 566/374/561 560/384/555 565/383/560
f 566/374/561 567/382/562 560/384/555
f 568/360/563 567/382/562 566/374/561
f 568/360/563 569/359/564 567/382/562
f 568/360/563 570/80/565 569/359/564
f 571/357/566 564/363/559 563/362/558
f 571/357/566 572/361/567 564/363/559
f 572/361/567 565/383/560 564/363/559
f 572/361/567 566/374/561 565/383/560
f 573/75/568 566/374/561 572/361/567
f 573/75/568 568/360/563 566/374/561
f 574/358/569 572/361/567 571/357/566
f 574/358/569 573/75/568 572/361/567
f 574/358/569 575/76/570 573/75/568
f 550/372/545 551/370/546 560/384/555
f 550/372/545 560/384/555 549/376/544
f 549/376/544 560/384/555 567/382/562
f 549/376/544 567/382/562 576/385/571
f 576/385/571 567/382/562 569/359/564
f 576/385/571 569/359/564 577/381/572
f 577/381/572 569/359/564 570/80/565
f 577/381/572 570/80/565 578/82/573
f 579/69/574 578/82/573 570/80/565
f 579/69/574 580/81/575 578/82/573
f 581/84/576 578/82/573 580/81/575
f 581/84/576 580/81/575 582/83/577
f 545/86/540 581/84/576 582/83/577
f 545/86/540 582/83/577 583/85/578
f 546/88/541 545/86/540 583/85/578
f 546/88/541 583/85/578 584/87/579
f 535/98/530 546/88/541 584/87/579
f 534/90/529 546/88/541 535/98/530
f 545/86/540 585/380/580 581/84/576
f 547/89/542 585/380/580 545/86/540
f 547/89/542 548/375/543 585/380/580
f 549/376/544 585/380/580 548/375/543
f 549/376/544 576/385/571 585/380/580
f 585/380/580 576/385/571 577/381/572
f 581/84/576 585/380/580 577/381/572
f 578/82/573 581/84/576 577/381/572
f 504/122/499 586/118/581 503/124/498
f 504/122/499 587/117/582 586/118/581
f 504/122/499 510/112/505 587/117/582
f 510/112/505 588/116/583 587/117/582
f 510/112/505 511/113/506 588/116/583
f 511/113/506 589/114/584 588/116/583
f 511/113/506 535/98/530 589/114/584
f 535/98/530 590/115/585 589/114/584
f 535/98/530 591/99/586 590/115/585
f 535/98/530 584/87/579 591/99/586
f 584/87/579 592/100/587 591/99/586
f 584/87/579 593/101/588 592/100/587
f 584/87/579 583/85/578 593/101/588
f 583/85/578 594/102/589 593/101/588
f 583/85/578 582/83/577 594/102/589
f 582/83/577 595/65/590 594/102/589
f 582/83/577 580/81/575 595/65/590
f 596/64/591 595/65/590 580/81/575
f 597/47/592 598/63/593 596/64/591
f 598/63/593 595/65/590 596/64/591
f 591/99/586 599/401/594 590/115/585
f 600/58/595 601/68/596 602/66/597
f 575/59/570 601/68/596 600/58/595
f 603/48/598 575/59/570 600/58/595
f 575/59/570 603/48/598 597/47/592
f 603/48/598 598/63/593 597/47/592
f 603/48/598 604/46/599 598/63/593
f 604/46/599 595/65/590 598/63/593
f 604/46/599 605/44/600 595/65/590
f 594/102/589 595/65/590 605/44/600
f 594/102/589 605/44/600 606/45/601
f 593/101/588 594/102/589 606/45/601
f 593/101/588 606/45/601 607/35/602
f 592/100/587 593/101/588 607/35/602
f 592/100/587 607/35/602 608/36/603
f 591/99/586 592/100/587 608/36/603
f 591/99/586 608/36/603 609/406/604
f 591/99/586 609/406/604 599/401/594
f 609/406/604 507/402/502 599/401/594
f 609/406/604 608/36/603 610/404/605
f 605/44/600 604/46/599 611/43/606
f 604/46/599 612/49/607 611/43/606
f 604/46/599 603/48/598 612/49/607
f 603/48/598 600/58/595 612/49/607
f 461/30/456 462/31/457 499/32/494
f 461/30/456 499/32/494 613/29/608
f 610/404/605 613/29/608 499/32/494
f 610/404/605 614/33/609 613/29/608
f 610/404/605 608/36/603 614/33/609
f 608/36/603 615/37/610 614/33/609
f 608/36/603 607/35/602 615/37/610
f 607/35/602 616/38/611 615/37/610
f 607/35/602 606/45/601 616/38/611
f 606/45/601 617/39/612 616/38/611
f 606/45/601 605/44/600 617/39/612
f 618/40/613 617/39/612 605/44/600
f 618/40/613 605/44/600 611/43/606
f 619/50/614 618/40/613 611/43/606
f 619/50/614 611/43/606 612/49/607
f 620/57/615 619/50/614 612/49/607
f 620/57/615 612/49/607 600/58/595
f 602/66/597 620/57/615 600/58/595
f 563/67/558 620/57/615 602/66/597
f 614/33/609 621/27/616 613/29/608
f 614/33/609 615/37/610 621/27/616
f 615/37/610 622/25/617 621/27/616
f 615/37/610 616/38/611 622/25/617
f 616/38/611 623/34/618 622/25/617
f 616/38/611 617/39/612 623/34/618
f 624/41/619 623/34/618 617/39/612
f 624/41/619 617/39/612 618/40/613
f 625/51/620 624/41/619 618/40/613
f 625/51/620 618/40/613 619/50/614
f 626/56/621 625/51/620 619/50/614
f 626/56/621 619/50/614 620/57/615
f 620/57/615 562/53/557 626/56/621
f 561/55/556 626/56/621 562/53/557
f 561/55/556 627/54/622 626/56/621
f 627/54/622 625/51/620 626/56/621
f 627/54/622 628/52/623 625/51/620
f 628/52/623 624/41/619 625/51/620
f 628/52/623 629/42/624 624/41/619
f 629/42/624 623/34/618 624/41/619
f 629/42/624 540/18/535 623/34/618
f 622/25/617 623/34/618 630/17/625
f 540/18/535 630/17/625 623/34/618
f 613/29/608 516/28/511 461/30/456
f 613/29/608 631/26/626 516/28/511
f 613/29/608 621/27/616 631/26/626
f 621/27/616 632/24/627 631/26/626
f 621/27/616 622/25/617 632/24/627
f 622/25/617 633/23/628 632/24/627
f 622/25/617 630/17/625 633/23/628
f 634/22/629 633/23/628 630/17/625
f 634/22/629 630/17/625 635/15/630
f 636/21/631 634/22/629 635/15/630
f 636/21/631 635/15/630 637/13/632
f 638/19/633 636/21/631 637/13/632
f 638/19/633 637/13/632 639/10/634
f 640/20/635 638/19/633 639/10/634
f 640/20/635 639/10/634 641/11/636
f 641/11/636 639/10/634 642/12/637
f 641/11/636 642/12/637 643/9/638
f 516/28/511 514/325/509 515/324/510
f 516/28/511 631/26/626 514/325/509
f 631/26/626 518/326/513 514/325/509
f 631/26/626 632/24/627 518/326/513
f 632/24/627 519/327/514 518/326/513
f 632/24/627 633/23/628 519/327/514
f 526/328/521 519/327/514 633/23/628
f 526/328/521 633/23/628 634/22/629
f 529/329/524 526/328/521 634/22/629
f 529/329/524 634/22/629 636/21/631
f 532/330/527 529/329/524 636/21/631
f 532/330/527 636/21/631 638/19/633
f 533/331/528 532/330/527 638/19/633
f 533/331/528 638/19/633 640/20/635
f 639/10/634 644/14/639 642/12/637
f 639/10/634 637/13/632 644/14/639
f 637/13/632 541/16/536 644/14/639
f 637/13/632 635/15/630 541/16/536
f 635/15/630 540/18/535 541/16/536
f 635/15/630 630/17/625 540/18/535
f 468/154/463 457/322/452 456/323/451
f 468/154/463 480/152/475 457/322/452
f 483/143/478 457/322/452 480/152/475
f 483/143/478 485/321/480 457/322/452
f 562/53/557 620/57/615 563/67/558
f 602/66/597 571/177/566 563/67/558
f 574/178/569 571/177/566 602/66/597
f 602/66/597 601/68/596 574/178/569
f 574/178/569 601/68/596 575/59/570
f 645/60/640 646/62/641 647/61/642
f 646/62/641 648/72/643 647/61/642
f 646/62/641 649/71/644 648/72/643
f 596/64/591 580/81/575 579/69/574
f 650/70/645 596/64/591 579/69/574
f 650/70/645 579/69/574 570/80/565
f 650/70/645 570/80/565 651/78/646
f 568/360/563 651/78/646 570/80/565
f 652/79/647 651/78/646 568/360/563
f 652/79/647 568/360/563 573/75/568
f 653/73/648 652/79/647 573/75/568
f 575/76/570 653/73/648 573/75/568
f 575/76/570 645/74/640 653/73/648
f 653/73/648 645/74/640 647/77/642
f 653/73/648 647/77/642 648/72/643
f 648/72/643 652/79/647 653/73/648
f 648/72/643 649/71/644 652/79/647
f 649/71/644 651/78/646 652/79/647
f 649/71/644 650/70/645 651/78/646
f 649/71/644 596/64/591 650/70/645
f 649/71/644 646/62/641 596/64/591
f 597/47/592 596/64/591 646/62/641
f 645/60/640 597/47/592 646/62/641
f 575/59/570 597/47/592 645/60/640
f 640/175/635 643/176/638 533/173/528
f 640/175/635 641/174/636 643/176/638
f 654/511/649 599/512/594 507/513/502
f 654/511/649 655/514/650 599/512/594
f 655/514/650 590/515/585 599/512/594
f 656/516/651 590/515/585 655/514/650
f 656/516/651 589/517/584 590/515/585
f 656/516/651 657/518/652 589/517/584
f 657/518/652 588/519/583 589/517/584
f 658/520/653 588/519/583 657/518/652
f 658/520/653 587/521/582 588/519/583
f 659/522/654 587/521/582 658/520/653
f 659/522/654 586/523/581 587/521/582
f 659/522/654 660/524/655 586/523/581
f 660/524/655 503/525/498 586/523/581
f 661/526/656 503/525/498 660/524/655
f 662/527/657 503/525/498 661/526/656
f 662/527/657 502/528/497 503/525/498
f 662/527/657 507/529/502 502/528/497
f 662/527/657 654/530/649 507/529/502
f 654/530/649 275/282/270 239/281/234
f 654/530/649 662/527/657 275/282/270
f 662/527/657 276/283/271 275/282/270
f 662/527/657 661/526/656 276/283/271
f 661/526/656 269/273/264 276/283/271
f 661/526/656 660/524/655 269/273/264
f 659/522/654 269/273/264 660/524/655
f 659/522/654 268/272/263 269/273/264
f 659/522/654 265/269/260 268/272/263
f 659/522/654 658/520/653 265/269/260
f 658/520/653 262/266/257 265/269/260
f 658/520/653 657/518/652 262/266/257
f 657/518/652 226/230/221 262/266/257
f 657/518/652 656/516/651 226/230/221
f 656/516/651 229/233/224 226/230/221
f 656/516/651 655/514/650 229/233/224
f 655/514/650 239/243/234 229/233/224
f 655/514/650 654/511/649 239/243/234
f 609/406/604 501/403/496 507/402/502
f 609/406/604 610/404/605 501/403/496
f 499/32/494 501/403/496 610/404/605
f 499/32/494 500/405/495 501/403/496
f 643/176/638 642/395/637 663/394/658
f 642/395/637 544/393/539 663/394/658
f 642/395/637 644/392/639 544/393/539
f 544/393/539 644/392/639 543/391/538
f 644/392/639 542/390/537 543/391/538
f 644/392/639 541/389/536 542/390/537
f 544/393/539 528/398/523 530/397/525
f 663/394/658 544/393/539 530/397/525
f 663/394/658 530/397/525 531/396/526
f 643/176/638 663/394/658 531/396/526
f 643/176/638 531/396/526 533/173/528
f 561/531/556 558/366/553 556/367/551
f 561/531/556 556/367/551 627/532/622
f 627/532/622 556/367/551 628/533/623
f 628/533/623 556/367/551 554/369/549
f 554/369/549 629/534/624 628/533/623
f 554/369/549 552/371/547 629/534/624
f 552/371/547 540/387/535 629/534/624
f 552/371/547 539/373/534 540/387/535
f 664/535/659 665/536/660 666/537/661
f 664/535/659 667/538/662 665/536/660
f 667/538/662 668/539/663 665/536/660
f 11/540/664 666/537/661 665/536/660
f 11/540/664 665/536/660 12/541/2
f 12/541/2 665/536/660 14/542/3
f 14/542/3 665/536/660 668/539/663
f 14/542/3 668/539/663 15/543/4
f 668/539/663 19/544/7 15/543/4
f 669/545/665 19/544/7 668/539/663
f 669/545/665 18/546/8 19/544/7
f 670/547/666 18/546/8 669/545/665
f 20/548/667 18/546/8 670/547/666
f 670/547/666 392/447/387 20/548/667
f 22/549/668 20/548/667 392/447/387
f 392/447/387 21/550/669 22/549/668
f 392/447/387 391/446/386 21/550/669
f 392/447/387 404/459/399 390/445/385
f 392/447/387 670/547/666 404/459/399
f 670/547/666 405/460/400 404/459/399
f 669/545/665 405/460/400 670/547/666
f 669/545/665 671/551/670 405/460/400
f 669/545/665 668/539/663 671/551/670
f 668/539/663 672/552/671 671/551/670
f 667/538/662 672/552/671 668/539/663
f 667/538/662 673/553/672 672/552/671
f 664/535/659 673/553/672 667/538/662
f 674/554/673 673/553/672 664/535/659
f 674/554/673 664/535/659 666/537/661
f 674/554/673 666/537/661 675/555/674
f 674/554/673 676/556/675 677/557/676
f 674/554/673 675/555/674 676/556/675
f 678/558/677 672/552/671 673/553/672
f 677/557/676 679/559/678 680/560/679
f 677/557/676 681/561/680 679/559/678
f 682/562/681 681/561/680 23/563/682
f 681/561/680 682/562/681 679/559/678
f 679/559/678 682/562/681 420/477/415
f 420/477/415 680/560/679 679/559/678
f 420/477/415 422/479/417 680/560/679
f 391/564/386 23/563/682 21/565/669
f 391/564/386 682/562/681 23/563/682
f 389/566/384 682/562/681 391/564/386
f 389/566/384 420/477/415 682/562/681
f 420/477/415 389/566/384 387/476/382
f 674/554/673 677/557/676 680/560/679
f 674/554/673 680/560/679 683/567/683
f 422/479/417 683/567/683 680/560/679
f 422/479/417 684/568/684 683/567/683
f 423/480/418 684/568/684 422/479/417
f 423/480/418 685/569/685 684/568/684
f 425/482/420 685/569/685 423/480/418
f 425/482/420 686/570/686 685/569/685
f 425/482/420 429/486/424 686/570/686
f 429/486/424 687/571/687 686/570/686
f 418/473/413 687/571/687 429/486/424
f 687/571/687 418/473/413 688/572/688
f 416/471/411 688/572/688 418/473/413
f 688/572/688 416/471/411 689/573/689
f 416/471/411 413/468/408 689/573/689
f 690/574/690 689/573/689 413/468/408
f 403/458/398 690/574/690 413/468/408
f 403/458/398 405/460/400 690/574/690
f 674/554/673 683/567/683 673/553/672
f 683/567/683 684/568/684 673/553/672
f 678/558/677 673/553/672 684/568/684
f 678/558/677 684/568/684 685/569/685
f 678/558/677 685/569/685 691/575/691
f 685/569/685 686/570/686 691/575/691
f 687/571/687 691/575/691 686/570/686
f 688/572/688 691/575/691 687/571/687
f 688/572/688 692/576/692 691/575/691
f 688/572/688 689/573/689 692/576/692
f 693/577/693 692/576/692 689/573/689
f 690/574/690 693/577/693 689/573/689
f 693/577/693 690/574/690 405/460/400
f 693/577/693 405/460/400 671/551/670
f 693/577/693 671/551/670 672/552/671
f 693/577/693 672/552/671 694/578/694
f 678/558/677 694/578/694 672/552/671
f 678/558/677 691/575/691 694/578/694
f 694/578/694 691/575/691 692/576/692
f 693/577/693 694/578/694 692/576/692
f 479/348/474 462/351/457 477/150/472
f 475/149/470 477/150/472 462/351/457
f 475/149/470 462/351/457 454/352/449
f 474/148/469 475/149/470 454/352/449
f 474/148/469 454/352/449 452/353/447
f 482/146/477 474/148/469 452/353/447
f 482/146/477 452/353/447 449/354/444
f 484/144/479 482/146/477 449/354/444
f 484/144/479 449/354/444 448/355/443
f 485/141/480 484/144/479 448/355/443
f 485/141/480 448/355/443 457/356/452
f 495/139/490 695/134/695 476/133/471
f 695/134/695 478/131/473 476/133/471
f 695/134/695 696/132/696 478/131/473
f 696/132/696 486/129/481 478/131/473
f 696/132/696 488/130/483 486/129/481
f 491/136/486 488/130/483 696/132/696
f 492/137/487 491/136/486 696/132/696
f 492/137/487 696/132/696 695/134/695
f 493/138/488 492/137/487 695/134/695
f 493/138/488 695/134/695 495/139/490
f 494/170/489 493/138/488 495/139/490
f 331/367/326 330/366/325 70/531/55
f 69/532/54 331/367/326 70/531/55
f 67/533/52 331/367/326 69/532/54
f 333/369/328 331/367/326 67/533/52
f 67/533/52 335/371/330 333/369/328
f 67/533/52 57/534/42 335/371/330
f 57/534/42 337/373/332 335/371/330
f 57/534/42 33/387/18 337/373/332
